<svg width="119" height="22" viewBox="0 0 119 22" fill="none" xmlns="http://www.w3.org/2000/svg">
<path d="M5.01855 18H2.28516L2.30273 16.251H5.01855C5.80957 16.251 6.47168 16.0781 7.00488 15.7324C7.54395 15.3867 7.94824 14.8916 8.21777 14.2471C8.49316 13.6025 8.63086 12.835 8.63086 11.9443V11.25C8.63086 10.5586 8.55176 9.94629 8.39355 9.41309C8.24121 8.87988 8.0127 8.43164 7.70801 8.06836C7.40918 7.70508 7.04004 7.42969 6.60059 7.24219C6.16699 7.05469 5.66602 6.96094 5.09766 6.96094H2.23242V5.20312H5.09766C5.94727 5.20312 6.72363 5.34668 7.42676 5.63379C8.12988 5.91504 8.73633 6.32227 9.24609 6.85547C9.76172 7.38867 10.1572 8.02734 10.4326 8.77148C10.708 9.51562 10.8457 10.3477 10.8457 11.2676V11.9443C10.8457 12.8643 10.708 13.6963 10.4326 14.4404C10.1572 15.1846 9.76172 15.8232 9.24609 16.3564C8.73047 16.8838 8.11523 17.291 7.40039 17.5781C6.69141 17.8594 5.89746 18 5.01855 18ZM3.50684 5.20312V18H1.30078V5.20312H3.50684ZM17.8506 6.9082L14.0273 18H11.7158L16.5322 5.20312H18.0088L17.8506 6.9082ZM21.0498 18L17.2178 6.9082L17.0508 5.20312H18.5361L23.3701 18H21.0498ZM20.8652 13.2539V15.0029H13.9043V13.2539H20.8652ZM27.0088 5.20312V18H24.8027V5.20312H27.0088ZM32.2295 10.8018V12.5508H26.4463V10.8018H32.2295ZM32.959 5.20312V6.96094H26.4463V5.20312H32.959ZM38.1357 6.9082L34.3125 18H32.001L36.8174 5.20312H38.2939L38.1357 6.9082ZM41.335 18L37.5029 6.9082L37.3359 5.20312H38.8213L43.6553 18H41.335ZM41.1504 13.2539V15.0029H34.1895V13.2539H41.1504ZM45.0879 5.20312H49.6143C50.5869 5.20312 51.416 5.34961 52.1016 5.64258C52.7871 5.93555 53.3115 6.36914 53.6748 6.94336C54.0439 7.51172 54.2285 8.21484 54.2285 9.05273C54.2285 9.69141 54.1113 10.2539 53.877 10.7402C53.6426 11.2266 53.3115 11.6367 52.8838 11.9707C52.4561 12.2988 51.9463 12.5537 51.3545 12.7354L50.6865 13.0605H46.6172L46.5996 11.3115H49.6494C50.1768 11.3115 50.6162 11.2178 50.9678 11.0303C51.3193 10.8428 51.583 10.5879 51.7588 10.2656C51.9404 9.9375 52.0312 9.56836 52.0312 9.1582C52.0312 8.71289 51.9434 8.32617 51.7676 7.99805C51.5977 7.66406 51.334 7.40918 50.9766 7.2334C50.6191 7.05176 50.165 6.96094 49.6143 6.96094H47.2939V18H45.0879V5.20312ZM52.3916 18L49.3857 12.252L51.6973 12.2432L54.7471 17.8857V18H52.3916ZM61.4092 6.9082L57.5859 18H55.2744L60.0908 5.20312H61.5674L61.4092 6.9082ZM64.6084 18L60.7764 6.9082L60.6094 5.20312H62.0947L66.9287 18H64.6084ZM64.4238 13.2539V15.0029H57.4629V13.2539H64.4238ZM70.7168 5.20312V18H68.5107V5.20312H70.7168ZM80.1914 14.7041C80.1914 14.4404 80.1504 14.2061 80.0684 14.001C79.9922 13.7959 79.8545 13.6084 79.6553 13.4385C79.4561 13.2686 79.1748 13.1045 78.8115 12.9463C78.4541 12.7822 77.9971 12.6152 77.4404 12.4453C76.8311 12.2578 76.2686 12.0498 75.7529 11.8213C75.2432 11.5869 74.7979 11.3174 74.417 11.0127C74.0361 10.7021 73.7402 10.3477 73.5293 9.94922C73.3184 9.54492 73.2129 9.0791 73.2129 8.55176C73.2129 8.03027 73.3213 7.55566 73.5381 7.12793C73.7607 6.7002 74.0742 6.33105 74.4785 6.02051C74.8887 5.7041 75.3721 5.46094 75.9287 5.29102C76.4854 5.11523 77.1006 5.02734 77.7744 5.02734C78.7236 5.02734 79.541 5.20312 80.2266 5.55469C80.918 5.90625 81.4482 6.37793 81.8174 6.96973C82.1924 7.56152 82.3799 8.21484 82.3799 8.92969H80.1914C80.1914 8.50781 80.1006 8.13574 79.9189 7.81348C79.7432 7.48535 79.4736 7.22754 79.1104 7.04004C78.7529 6.85254 78.2988 6.75879 77.748 6.75879C77.2266 6.75879 76.793 6.83789 76.4473 6.99609C76.1016 7.1543 75.8438 7.36816 75.6738 7.6377C75.5039 7.90723 75.4189 8.21191 75.4189 8.55176C75.4189 8.79199 75.4746 9.01172 75.5859 9.21094C75.6973 9.4043 75.8672 9.58594 76.0957 9.75586C76.3242 9.91992 76.6113 10.0752 76.957 10.2217C77.3027 10.3682 77.71 10.5088 78.1787 10.6436C78.8877 10.8545 79.5059 11.0889 80.0332 11.3467C80.5605 11.5986 81 11.8857 81.3516 12.208C81.7031 12.5303 81.9668 12.8965 82.1426 13.3066C82.3184 13.7109 82.4062 14.1709 82.4062 14.6865C82.4062 15.2256 82.2979 15.7119 82.0811 16.1455C81.8643 16.5732 81.5537 16.9395 81.1494 17.2441C80.751 17.543 80.2705 17.7744 79.708 17.9385C79.1514 18.0967 78.5303 18.1758 77.8447 18.1758C77.2295 18.1758 76.623 18.0938 76.0254 17.9297C75.4336 17.7656 74.8945 17.5166 74.4082 17.1826C73.9219 16.8428 73.5352 16.4209 73.248 15.917C72.9609 15.4072 72.8174 14.8125 72.8174 14.1328H75.0234C75.0234 14.5488 75.0938 14.9033 75.2344 15.1963C75.3809 15.4893 75.583 15.7295 75.8408 15.917C76.0986 16.0986 76.3975 16.2334 76.7373 16.3213C77.083 16.4092 77.4521 16.4531 77.8447 16.4531C78.3604 16.4531 78.791 16.3799 79.1367 16.2334C79.4883 16.0869 79.752 15.8818 79.9277 15.6182C80.1035 15.3545 80.1914 15.0498 80.1914 14.7041ZM85.5791 5.20312L88.5498 11.3115L91.5205 5.20312H93.9639L89.6572 13.2891V18H87.4336V13.2891L83.127 5.20312H85.5791ZM99.3428 6.9082L95.5195 18H93.208L98.0244 5.20312H99.501L99.3428 6.9082ZM102.542 18L98.71 6.9082L98.543 5.20312H100.028L104.862 18H102.542ZM102.357 13.2539V15.0029H95.3965V13.2539H102.357Z" fill="white"/>
<path d="M108.283 2.60156V9H107.188V2.60156H108.283ZM110.291 2.60156V3.48047H105.198V2.60156H110.291ZM111.583 2.60156H112.567L114.417 7.53662L116.263 2.60156H117.248L114.804 9H114.022L111.583 2.60156ZM111.135 2.60156H112.071L112.233 6.87305V9H111.135V2.60156ZM116.76 2.60156H117.7V9H116.597V6.87305L116.76 2.60156Z" fill="white"/>
</svg>
