<?xml version="1.0" standalone="no"?>
<!DOCTYPE svg PUBLIC "-//W3C//DTD SVG 20010904//EN"
 "http://www.w3.org/TR/2001/REC-SVG-20010904/DTD/svg10.dtd">
<svg version="1.0" xmlns="http://www.w3.org/2000/svg"
 width="6323.000000pt" height="5230.000000pt" viewBox="0 0 6323.000000 5230.000000"
 preserveAspectRatio="xMidYMid meet">

<g transform="translate(0.000000,5230.000000) scale(0.100000,-0.100000)"
fill="#000000" stroke="none">
<path d="M35006 51830 c-643 -253 -1171 -462 -1173 -464 -2 -2 253 -338 566
-747 313 -409 566 -747 562 -751 -3 -3 -1314 -687 -2913 -1518 l-2908 -1512 0
-108 0 -108 -744 -246 -745 -246 -61 -69 -60 -68 -187 -37 -186 -38 -231 -114
-231 -115 -705 -163 c-676 -156 -705 -164 -705 -186 0 -21 -124 -59 -2270
-695 l-2269 -673 -561 43 c-308 23 -562 41 -564 39 -2 -2 -8 -72 -12 -155 -5
-84 -10 -153 -11 -154 -2 -2 -480 -36 -1063 -76 l-1060 -74 -58 -112 -58 -113
-177 0 -177 0 -407 -136 -407 -135 5 -27 c18 -98 31 -188 28 -193 -2 -3 -42
-21 -90 -39 l-86 -34 -197 -210 c-148 -158 -305 -308 -645 -615 -266 -240
-443 -407 -434 -409 8 -2 301 22 650 53 350 30 651 55 671 55 40 0 36 11 58
-171 l11 -96 174 -127 174 -126 166 30 c92 16 182 30 201 30 18 0 70 -14 114
-31 l79 -31 66 36 c36 20 71 33 77 29 45 -27 477 -347 477 -354 0 -17 -22 -16
-214 8 l-199 25 -186 -185 -186 -185 -750 -392 c-412 -216 -756 -396 -763
-400 -8 -4 182 -111 487 -275 276 -148 501 -273 501 -279 0 -6 -43 -227 -95
-491 -52 -264 -90 -482 -85 -485 5 -3 215 -22 467 -43 251 -21 458 -39 459
-40 0 -1 38 -177 83 -392 46 -214 84 -391 85 -392 1 -2 137 92 302 208 164
116 315 222 336 236 l36 24 43 -27 c36 -22 65 -30 167 -42 l123 -15 116 37
c63 21 116 36 118 34 2 -2 -147 -142 -331 -313 -184 -170 -334 -312 -334 -315
0 -3 131 -66 290 -140 160 -74 290 -137 290 -140 0 -3 -20 -58 -44 -123 l-44
-117 210 -276 c116 -152 206 -279 202 -283 -5 -4 -36 -19 -70 -34 -33 -15 -86
-38 -117 -52 l-56 -24 24 -56 25 -55 -188 5 c-103 3 -213 8 -245 10 -52 4 -58
3 -53 -13 3 -9 57 -191 120 -404 l114 -387 -19 -258 c-10 -142 -19 -279 -19
-304 l0 -46 141 -87 c77 -49 142 -93 144 -100 6 -16 56 -1479 51 -1484 -3 -2
-107 16 -232 41 l-227 44 -172 -105 -171 -105 -142 -516 c-109 -399 -143 -536
-148 -603 -4 -49 -7 -88 -8 -88 0 -1 -93 -20 -206 -43 l-205 -42 -178 -232
-177 -232 -243 146 c-133 80 -245 147 -249 149 -11 7 -578 -627 -578 -645 0
-9 9 -49 19 -89 l19 -73 -26 -10 c-15 -6 -234 -87 -487 -181 -253 -94 -465
-173 -472 -177 -11 -6 22 -73 232 -467 l54 -102 -82 -31 -82 -32 -63 -242
c-35 -133 -64 -243 -66 -244 -1 -1 -154 15 -340 36 -228 25 -339 34 -341 27
-2 -6 -10 -107 -19 -225 -8 -117 -18 -217 -23 -221 -4 -3 -111 -53 -238 -110
-126 -56 -231 -104 -233 -105 -1 -1 -61 -145 -133 -321 -144 -352 -161 -415
-152 -551 l6 -82 -49 5 c-27 3 -177 -4 -332 -15 l-284 -21 -36 -29 c-21 -16
-53 -46 -72 -66 -19 -20 -65 -64 -102 -97 l-68 -60 -123 16 c-67 9 -134 16
-147 16 -20 0 -80 -64 -304 -320 l-279 -319 -219 -156 c-121 -86 -221 -155
-222 -153 -2 1 -17 40 -35 85 l-33 81 -71 6 c-40 3 -304 10 -587 16 -486 10
-515 9 -531 -7 -9 -10 -112 -150 -228 -312 -187 -259 -561 -731 -579 -731 -4
0 -151 27 -327 59 -176 33 -323 57 -326 53 -59 -65 -959 -1135 -959 -1140 0
-4 40 -169 88 -367 59 -239 85 -362 78 -366 -6 -4 -101 -35 -211 -69 -110 -34
-205 -66 -211 -71 -7 -6 -113 6 -280 31 -148 22 -275 40 -282 40 -7 0 317
-306 720 -680 l733 -680 202 -375 203 -375 -50 -431 c-27 -237 -51 -433 -54
-436 -2 -3 -75 1 -160 8 -86 6 -158 10 -160 8 -4 -6 -175 -823 -172 -826 1 -1
119 -30 261 -63 143 -33 263 -64 267 -68 18 -19 108 -234 101 -245 -4 -7 -66
-91 -138 -187 -72 -96 -134 -179 -137 -185 -3 -5 9 -145 27 -310 17 -165 29
-303 26 -306 -3 -4 -132 1 -286 12 -154 10 -294 18 -312 19 l-32 0 45 -65 c44
-63 45 -66 21 -59 -22 5 -27 2 -31 -18 -3 -12 -28 -273 -57 -578 -28 -305 -54
-558 -57 -562 -4 -4 -110 -61 -235 -128 l-228 -122 -55 38 c-29 22 -236 175
-460 342 -223 166 -403 295 -400 285 27 -88 316 -1213 316 -1230 0 -21 -14
-16 -190 72 -104 52 -194 95 -200 95 -6 0 -11 -170 -12 -486 l-3 -487 -205
-96 c-113 -53 -215 -101 -227 -106 -22 -10 -20 -16 109 -300 72 -159 131 -294
131 -300 0 -5 -240 -404 -534 -885 l-535 -875 -49 -178 c-28 -98 -52 -182 -55
-186 -3 -5 -133 -96 -291 -204 l-285 -196 -58 -643 c-31 -354 -59 -654 -62
-668 -4 -19 -75 -76 -299 -238 -162 -118 -298 -219 -303 -225 -5 -7 -39 -101
-77 -209 l-68 -198 -265 -232 c-146 -128 -272 -238 -280 -243 -10 -8 -21 -106
-42 -395 -16 -212 -30 -386 -30 -387 0 -1 -45 -30 -100 -64 -55 -34 -100 -65
-100 -68 0 -3 31 -85 69 -181 l69 -175 -91 -85 -90 -85 117 -319 c64 -176 116
-326 116 -335 0 -43 -180 -764 -193 -774 -8 -7 -263 -505 -566 -1107 l-551
-1095 0 -225 0 -225 -634 -635 -635 -635 367 -325 367 -325 3 -221 2 -222 243
-83 242 -84 390 -707 c215 -389 393 -708 396 -708 3 0 469 255 1035 566 566
311 1047 575 1069 587 25 13 464 113 1195 271 l1155 251 1454 1035 c800 569
1465 1043 1478 1054 13 12 74 138 142 291 l120 270 678 124 c373 68 680 126
682 128 2 1 -17 128 -42 280 l-46 278 63 65 c35 36 177 184 316 330 l252 265
531 287 530 287 88 -75 87 -74 357 305 356 306 -82 95 c-44 53 -79 97 -77 98
1 2 51 31 110 65 l107 62 18 82 c16 72 21 82 42 85 13 2 93 48 178 101 l154
97 212 -33 c117 -18 215 -33 220 -33 4 0 7 26 7 59 0 81 11 152 24 156 6 1 33
8 60 14 60 14 135 67 180 127 l34 44 44 -69 c23 -39 46 -69 49 -68 21 7 1148
734 1149 740 0 5 -25 51 -55 102 -30 52 -55 98 -55 104 0 5 118 89 262 187
l262 177 28 -16 29 -17 221 127 221 126 229 -23 c126 -12 230 -21 232 -19 2 2
-25 126 -61 274 l-64 270 57 105 c31 58 59 107 60 109 4 4 394 -54 442 -66
l22 -5 0 199 0 199 123 55 c120 54 128 60 405 290 l283 234 132 5 132 5 3 38
c3 35 6 38 25 32 12 -3 63 -9 113 -12 112 -7 160 7 238 69 112 90 143 234 77
369 -17 35 -60 96 -96 135 l-65 72 248 140 248 140 249 -39 c138 -21 253 -39
257 -39 3 0 48 80 98 178 51 97 93 179 95 181 2 2 506 -50 1120 -115 1231
-130 1121 -124 1285 -69 66 21 95 44 780 609 44 36 98 94 132 141 59 82 282
451 454 752 81 139 104 172 124 176 14 3 247 33 517 68 l493 64 122 277 123
277 924 427 c593 275 928 436 936 449 7 11 63 115 125 230 61 116 117 215 123
221 10 10 1366 265 1405 264 6 0 211 -163 455 -363 243 -199 447 -366 453
-370 7 -4 47 13 90 36 44 24 113 62 155 85 l76 42 478 -740 c263 -407 480
-739 481 -737 3 3 -199 1211 -210 1259 -3 13 21 35 87 81 51 35 97 67 103 70
7 4 46 -39 98 -108 47 -63 90 -115 94 -115 4 0 125 48 270 106 144 59 264 105
266 103 2 -2 33 -63 70 -136 115 -227 179 -294 309 -327 52 -13 80 -14 125 -7
78 12 327 104 886 325 l139 55 211 -161 c116 -88 218 -165 226 -170 13 -8 40
8 125 73 l108 83 741 -78 741 -78 28 -26 c16 -15 76 -80 135 -145 59 -64 109
-117 112 -117 4 0 66 128 139 285 74 157 136 285 138 285 2 0 319 -231 705
-513 609 -446 696 -512 671 -516 -31 -4 -686 16 -803 25 l-75 6 -57 -116 c-32
-64 -62 -116 -66 -116 -5 0 -29 6 -54 14 l-46 13 -587 -182 c-322 -100 -592
-188 -600 -196 -7 -8 -225 -334 -484 -725 l-471 -712 10 -113 c5 -63 12 -139
15 -170 l6 -57 -67 -31 c-87 -41 -460 -191 -474 -191 -6 0 -78 52 -161 115
-83 64 -159 121 -169 128 -15 9 -45 5 -153 -23 l-133 -34 -120 82 c-84 58
-129 82 -149 82 -51 -1 -745 -87 -752 -94 -4 -4 4 -106 16 -227 13 -121 21
-222 19 -224 -2 -3 -110 74 -239 169 -129 96 -235 173 -236 173 0 -1 5 -261
13 -577 7 -316 13 -591 14 -611 0 -34 -6 -39 -170 -165 -93 -71 -170 -133
-170 -139 -1 -14 302 -848 311 -859 4 -5 131 44 283 109 152 65 277 117 279
114 2 -2 23 -30 46 -61 l43 -58 67 -386 66 -387 529 -292 529 -293 69 30 c38
16 324 139 634 273 539 234 567 244 592 231 15 -8 101 -58 192 -112 91 -53
172 -97 180 -96 8 0 177 44 375 97 198 53 367 94 375 92 9 -2 335 -245 726
-540 l711 -535 211 15 c116 9 217 13 225 10 50 -19 1039 -1301 1058 -1371 5
-17 27 -191 50 -386 l42 -354 -22 -411 c-12 -225 -21 -430 -21 -455 l0 -46
330 -104 330 -104 570 -363 c314 -200 572 -363 575 -363 3 0 77 59 164 130
l160 130 160 -42 159 -42 12 -80 c6 -45 16 -119 23 -165 l12 -85 225 -127 224
-127 181 -329 c99 -180 185 -335 190 -344 9 -14 67 7 450 162 242 99 448 179
458 179 10 0 221 -63 470 -139 405 -125 561 -166 1507 -400 580 -143 1062
-261 1070 -263 9 -2 193 137 410 307 216 171 401 315 409 321 14 10 41 -21
176 -198 88 -115 166 -213 175 -217 8 -4 72 -23 142 -41 144 -39 131 -24 143
-165 3 -38 8 -79 10 -90 2 -11 86 -97 187 -192 l183 -171 355 -496 c195 -272
362 -495 370 -495 8 -1 382 80 830 180 l815 181 765 -305 c421 -168 766 -302
767 -299 2 4 -57 169 -131 367 -73 198 -131 363 -127 366 3 3 148 12 321 18
173 7 316 14 317 15 2 2 18 71 37 155 19 84 36 154 38 155 2 2 155 12 340 23
185 10 340 22 344 25 3 4 -14 116 -38 250 -25 134 -41 244 -37 246 12 5 45
-19 354 -262 l294 -231 503 -148 503 -148 275 61 c151 33 290 60 310 60 19 0
274 -29 566 -65 l531 -64 614 16 614 16 228 -143 228 -143 752 263 752 263
760 -60 c418 -33 761 -59 763 -58 3 3 182 1328 179 1331 -1 1 -175 149 -387
328 l-384 326 -131 0 c-131 0 -174 8 -141 27 12 7 -101 46 -426 148 l-443 138
-125 -12 c-69 -7 -151 -15 -183 -18 l-58 -6 3 74 3 74 207 130 208 130 -405 3
c-223 1 -405 6 -405 10 0 15 49 295 52 297 2 1 43 10 92 20 l89 19 133 113
c73 62 137 113 142 113 5 0 37 -33 71 -74 59 -72 63 -75 114 -80 28 -3 326
-24 662 -46 490 -32 612 -38 622 -28 27 28 906 1334 910 1353 2 11 -25 148
-61 304 -62 272 -66 286 -98 317 -18 18 -145 136 -283 262 l-249 230 -651 197
c-357 109 -654 201 -659 206 -5 5 -8 10 -5 13 2 2 87 -14 189 -35 102 -21 188
-39 192 -39 5 0 161 230 349 511 187 281 344 507 349 503 4 -5 115 -137 245
-294 131 -157 240 -286 244 -287 3 -2 60 139 126 313 66 174 123 318 126 320
6 3 34 -61 146 -333 l13 -31 50 16 c27 8 51 14 53 11 2 -2 30 -398 61 -879 32
-481 61 -883 65 -893 4 -12 107 335 275 925 148 519 276 955 285 969 9 15 99
133 201 262 l185 235 77 709 76 708 -64 101 c-35 56 -64 106 -64 113 0 6 30
70 66 142 36 73 62 135 57 139 -4 4 -67 52 -140 108 l-131 101 5 43 c5 39 15
52 108 140 l103 98 -63 201 -63 201 69 406 c41 245 65 410 60 416 -5 6 -120
90 -255 186 -135 96 -245 180 -246 185 0 6 27 80 60 165 l60 155 -57 202 c-31
112 -55 204 -52 207 2 2 157 53 344 113 l340 109 -3 145 -2 144 179 255 179
255 -17 25 c-10 14 -118 169 -241 345 -188 270 -240 338 -336 435 l-113 115
-54 292 -54 292 -166 255 c-92 140 -171 265 -177 278 -5 13 -30 160 -55 328
-26 168 -50 317 -55 332 -6 20 -491 798 -555 891 -11 16 -27 -25 -117 -295
l-105 -313 -69 3 c-38 1 -89 5 -114 8 l-45 5 -146 -293 -146 -293 90 -181 90
-181 -52 -141 -53 -140 86 -157 86 -156 -67 -76 c-59 -66 -106 -101 -358 -268
l-291 -192 -99 -147 -100 -148 -63 4 c-37 2 -67 9 -71 17 -5 7 -43 147 -86
311 -43 164 -81 303 -85 309 -5 9 -666 73 -677 67 -1 -1 -15 -75 -32 -166 -27
-149 -33 -167 -57 -187 -63 -50 -52 -50 -360 4 l-286 51 -400 -254 c-221 -140
-404 -254 -408 -254 -3 0 -17 34 -30 75 l-25 74 -319 -139 c-175 -77 -322
-140 -325 -140 -3 0 -87 95 -185 210 l-180 210 -208 0 -208 0 -90 45 -90 45 0
106 0 106 -102 166 c-57 91 -102 170 -101 176 1 6 48 226 104 490 l101 478
-40 479 -40 478 -122 157 c-67 86 -118 160 -113 164 4 4 47 15 96 25 48 10 87
19 87 21 0 1 -65 157 -144 347 l-144 345 -21 274 c-12 150 -21 280 -21 288 0
9 -24 25 -55 39 -36 15 -55 29 -55 41 0 9 18 144 41 299 22 156 39 284 37 286
-2 2 -47 24 -101 49 l-98 45 57 88 c32 48 57 93 57 99 0 11 -370 665 -404 714
-13 20 -42 33 -126 59 l-108 32 -64 115 c-49 88 -73 122 -107 146 -24 17 -43
33 -41 35 2 1 104 -38 227 -87 123 -49 225 -88 227 -86 2 1 -205 286 -460 632
l-464 629 -199 5 -199 6 -259 122 c-142 67 -267 124 -277 127 -14 5 -40 -13
-100 -67 -44 -40 -84 -74 -88 -76 -5 -2 -67 48 -139 110 l-130 113 -757 84
c-506 56 -759 80 -764 73 -156 -250 -165 -263 -195 -260 -26 3 -31 12 -82 138
-30 74 -54 142 -54 151 0 17 468 1279 479 1291 4 4 44 2 89 -5 l82 -14 0 46
c0 68 -30 689 -36 738 l-5 42 -77 3 -77 3 -11 250 c-6 138 -13 306 -15 375
l-4 125 123 3 c67 1 122 5 122 8 0 2 -81 112 -180 245 -110 145 -178 244 -174
252 4 7 30 40 57 75 49 62 53 65 271 174 121 61 223 112 225 114 3 2 -53 157
-123 345 -77 204 -125 347 -121 357 3 9 27 63 53 120 l46 104 55 -6 c142 -15
1260 -97 1289 -94 l34 3 169 445 c92 245 168 450 168 455 0 6 -114 93 -254
195 -215 156 -254 189 -254 210 -1 14 6 70 14 125 8 55 15 110 15 121 0 18
-23 31 -152 84 -84 34 -154 63 -156 65 -1 1 9 28 23 60 l26 58 -12 133 c-6 73
-9 139 -6 147 3 7 59 46 125 86 l119 72 153 -76 c83 -42 156 -75 160 -73 17 6
395 341 398 352 2 11 -80 695 -93 772 l-5 32 47 -5 48 -5 -53 54 -53 54 -16
135 c-9 74 -19 137 -22 141 -4 4 -38 -15 -76 -42 l-69 -50 -62 61 c-41 40 -60
67 -57 78 2 10 -3 154 -12 321 -8 167 -12 307 -8 310 5 4 274 37 598 74 325
38 591 69 592 70 6 5 163 705 162 726 0 14 -24 105 -52 203 l-52 177 -410 436
c-225 240 -410 439 -410 443 0 28 40 241 46 241 4 0 224 -83 490 -184 266
-102 487 -182 490 -178 8 8 795 1829 801 1850 3 13 -78 42 -825 303 -142 50
-148 53 -145 78 3 22 -7 32 -82 78 -47 29 -89 54 -94 56 -4 1 13 62 38 133
l47 131 -25 143 c-18 107 -30 148 -45 164 -12 12 -21 27 -21 33 0 6 25 48 55
92 55 79 56 80 103 83 l47 3 355 452 c195 248 358 455 362 458 4 4 30 2 58 -5
l51 -12 79 71 c44 39 116 103 159 142 l80 71 94 -13 95 -12 169 96 168 96 370
42 c204 23 371 43 373 44 4 3 -128 739 -137 760 -7 16 -50 32 -223 79 l-215
59 -12 34 c-7 19 -11 36 -9 37 1 2 172 33 378 70 206 37 383 70 392 74 16 7
-89 72 -967 604 l-160 97 -202 -31 -202 -31 -313 97 c-186 58 -331 109 -358
125 -25 16 -254 164 -510 331 l-465 303 -620 292 c-414 195 -662 306 -745 333
-174 58 -2522 619 -2915 697 l-320 63 -395 177 c-217 98 -430 191 -473 208
-58 23 -76 34 -73 46 16 56 59 261 55 264 -2 2 -109 76 -238 166 -195 135
-238 161 -260 156 -21 -4 -41 7 -112 64 l-86 69 -348 543 -348 542 23 17 22
16 -51 114 c-28 63 -51 117 -51 120 0 4 25 24 56 44 41 27 54 42 49 54 -3 9
-57 100 -120 203 -63 102 -115 194 -115 203 0 9 14 43 30 76 17 33 30 65 30
72 0 7 -62 76 -139 152 l-138 138 -309 36 -309 36 -325 191 -325 192 -297 429
c-236 340 -303 430 -322 432 -32 4 -122 171 -166 307 -18 55 -90 249 -160 430
-112 293 -139 374 -236 727 l-109 397 -85 3 -85 3 -88 146 -88 146 22 114 22
114 -64 199 -64 199 -236 81 c-190 65 -258 94 -354 149 l-120 69 -1115 314
c-613 173 -1125 318 -1137 324 -23 10 -23 11 -23 234 l0 225 -42 5 c-24 4
-358 35 -743 71 -385 36 -721 68 -746 71 l-47 6 -27 -84 c-15 -46 -29 -85 -31
-87 -1 -2 -256 94 -566 212 -536 205 -864 316 -1191 403 l-108 29 -105 152
c-81 118 -110 153 -127 153 -12 0 -105 7 -207 15 -102 8 -194 14 -205 14 -11
0 -546 -206 -1189 -459z m1387 -265 l83 -120 274 -76 c470 -130 617 -181 1453
-501 447 -171 821 -313 833 -315 19 -4 26 10 74 146 46 130 57 151 74 150 12
0 145 -13 296 -27 l275 -27 3 -185 2 -185 1308 -368 1307 -368 120 -68 c75
-42 162 -82 233 -105 61 -21 112 -41 112 -44 0 -4 -12 -66 -27 -138 l-27 -131
137 -230 137 -229 0 -157 0 -156 122 -3 122 -3 66 -230 c44 -151 104 -325 174
-505 60 -151 132 -345 161 -431 35 -103 74 -194 115 -268 34 -62 60 -114 58
-116 -13 -14 -822 -305 -847 -305 -10 0 -105 20 -211 45 -152 35 -239 49 -404
65 -116 11 -220 20 -231 20 -12 0 -68 -45 -138 -111 l-118 -112 -88 46 -87 46
-365 -101 -364 -101 -758 -1155 -758 -1155 57 -165 57 -165 -26 -180 c-15 -99
-28 -181 -29 -183 -2 -1 -102 -67 -223 -146 l-220 -145 -33 -164 c-18 -90 -34
-173 -35 -184 -2 -17 9 -21 108 -35 61 -9 109 -20 108 -26 -4 -24 -126 -244
-135 -244 -5 0 -133 32 -284 71 -151 39 -277 69 -280 66 -3 -3 -17 -75 -31
-161 -16 -95 -31 -156 -38 -156 -6 0 -120 22 -253 49 l-242 48 0 -233 0 -234
-25 -6 c-14 -3 -25 -9 -25 -12 0 -4 -49 -259 -110 -568 -60 -309 -110 -566
-110 -573 0 -8 66 -11 231 -11 l231 0 -7 -27 c-8 -36 -263 -919 -275 -956 l-9
-27 200 -101 201 -100 -6 -37 c-10 -64 -67 -624 -64 -626 2 -2 68 -29 148 -61
80 -32 149 -62 154 -66 6 -5 -6 -50 -28 -110 -22 -58 -34 -104 -29 -108 54
-35 463 -335 463 -339 0 -2 -37 -62 -81 -131 l-82 -126 -193 -151 c-193 -151
-194 -152 -232 -143 -118 27 -183 2 -492 -188 -91 -56 -109 -72 -138 -120 -32
-54 -33 -60 -52 -282 -43 -501 -91 -809 -132 -856 -5 -5 -37 18 -81 61 l-72
71 -755 107 c-415 59 -763 110 -773 113 -14 4 -35 -32 -117 -202 -81 -168
-104 -206 -118 -202 -9 2 -232 95 -494 206 -262 110 -480 201 -485 201 -5 0
-39 -53 -76 -118 -37 -65 -72 -126 -79 -135 -12 -16 -44 -4 -371 129 -197 81
-360 144 -363 141 -3 -3 7 -63 24 -134 16 -70 28 -129 28 -130 -5 -7 -191 44
-191 52 2 75 18 376 25 460 8 94 423 2810 434 2841 2 6 213 70 468 143 l463
132 102 179 102 178 -110 251 c-60 138 -108 255 -105 259 2 4 117 84 255 177
l250 170 1 502 0 502 350 376 c193 207 350 381 350 388 0 7 -52 230 -116 497
l-117 484 89 83 c49 45 98 83 109 83 10 0 163 -29 340 -65 176 -35 358 -71
404 -79 l83 -14 69 41 c67 41 69 43 80 97 16 76 4 624 -15 677 -7 21 -92 165
-187 321 l-174 283 -324 145 -324 146 -192 184 -192 185 -25 151 -25 150 251
306 c138 168 250 308 249 311 -1 3 -76 138 -167 298 -166 291 -167 294 -246
525 l-80 232 145 282 145 283 35 308 c19 169 37 324 40 344 4 34 -5 49 -160
255 -90 120 -165 222 -165 226 0 4 27 21 60 38 41 21 58 35 53 43 -4 7 -250
329 -546 717 -296 387 -535 706 -530 707 4 2 339 134 743 293 447 176 746 289
763 287 23 -2 41 -22 110 -122z m-772 -2300 l143 -189 -28 -256 -28 -255 -162
-318 -163 -318 103 -302 102 -303 126 -222 c75 -132 124 -228 119 -235 -4 -7
-91 -113 -193 -237 -102 -124 -202 -245 -222 -270 l-36 -45 44 -261 44 -261
202 -200 c301 -296 252 -262 598 -417 l305 -137 141 -232 141 -232 5 -197 c5
-180 4 -198 -11 -198 -9 0 -170 31 -358 68 l-342 69 -62 -16 c-59 -15 -73 -26
-251 -184 -136 -121 -187 -173 -184 -185 21 -73 237 -984 234 -991 -2 -5 -153
-169 -335 -366 l-333 -357 0 -482 0 -481 -291 -200 c-160 -110 -292 -202 -293
-205 -2 -3 55 -137 126 -299 l129 -295 -23 -44 c-44 -84 -26 -76 -553 -226
-269 -77 -491 -140 -491 -140 -1 -1 -97 -617 -213 -1371 -117 -753 -217 -1398
-222 -1432 l-11 -63 -223 0 c-204 0 -224 -2 -229 -17 -2 -10 -10 -66 -17 -125
-10 -88 -15 -108 -28 -108 -9 0 -123 15 -253 33 -236 33 -238 33 -238 13 0
-12 -7 -86 -15 -166 -8 -80 -15 -229 -15 -331 l0 -185 -70 -99 c-38 -54 -70
-106 -70 -114 1 -9 13 -60 28 -114 l27 -99 64 -26 c36 -15 63 -31 61 -37 -7
-20 -321 -265 -340 -265 -3 0 -22 32 -41 71 -23 48 -50 85 -82 113 -46 41 -57
45 -425 149 l-377 107 -139 -8 -139 -7 -78 110 c-42 60 -92 144 -109 186 l-32
77 101 171 c56 94 101 175 101 179 -1 4 -66 48 -147 97 -80 50 -150 93 -155
96 -5 3 -2 45 7 100 22 135 21 135 -25 159 -22 11 -40 24 -40 28 0 4 72 89
161 190 106 122 158 189 155 200 -2 9 -7 73 -11 142 l-6 125 261 605 c144 333
265 614 270 626 8 20 1 22 -168 53 -98 18 -178 34 -180 35 -1 2 -29 139 -63
305 l-60 302 30 37 c56 71 287 287 343 320 34 20 79 36 117 43 124 20 262 86
437 210 177 126 178 128 328 454 l134 290 138 20 139 20 26 303 c15 167 29
305 31 307 2 2 78 33 169 68 125 48 187 78 259 127 97 65 446 325 454 339 3 4
2 60 -1 124 l-6 118 -193 120 c-107 67 -194 124 -194 128 0 3 43 231 95 506
l96 500 -123 792 -123 793 -545 510 -545 510 -150 367 -149 368 -130 199 c-72
110 -126 201 -121 203 6 2 930 483 2055 1068 1125 586 2050 1064 2057 1062 7
-1 76 -87 154 -192z m-4402 -2285 l127 -195 158 -385 157 -385 529 -494 c291
-272 531 -503 533 -515 3 -12 54 -335 113 -719 l107 -697 -107 -568 c-59 -312
-108 -572 -109 -579 -1 -7 81 -64 183 -129 102 -64 186 -117 188 -119 2 -1
-39 -34 -90 -72 -199 -149 -241 -172 -440 -249 -105 -41 -192 -74 -194 -74 -1
0 -24 -28 -51 -62 l-48 -63 -21 -232 c-11 -128 -23 -235 -25 -238 -3 -2 -47
-10 -98 -17 -52 -6 -98 -17 -103 -22 -5 -6 -78 -161 -162 -344 l-153 -334 -99
-74 c-128 -96 -256 -160 -356 -179 -151 -28 -280 -113 -483 -319 -173 -176
-210 -225 -225 -301 -12 -58 -10 -73 69 -470 46 -225 85 -420 88 -432 4 -18
18 -24 99 -39 52 -10 94 -20 94 -23 0 -3 -81 -193 -179 -421 -175 -407 -179
-415 -205 -412 -15 2 -284 53 -599 113 l-571 108 -45 45 c-25 25 -42 48 -39
51 4 4 197 79 430 167 233 88 425 161 426 163 6 6 -60 399 -68 409 -5 4 -115
41 -246 82 -130 41 -239 76 -241 78 -3 2 -9 40 -14 82 -6 43 -11 79 -12 80 -1
1 -407 90 -902 199 -495 108 -917 200 -938 205 l-37 8 -202 -282 c-111 -154
-213 -296 -227 -315 l-25 -34 78 8 79 7 -6 -34 c-10 -53 -26 -228 -42 -437 -8
-106 -15 -195 -17 -196 -2 -2 -61 -30 -131 -64 l-128 -60 -17 30 c-9 17 -22
37 -27 45 -6 9 -179 51 -485 118 -383 83 -519 109 -701 131 l-226 27 -64 -33
c-57 -28 -74 -32 -154 -34 -49 -1 -100 -4 -113 -6 -18 -3 -28 6 -56 56 l-33
60 113 215 c62 118 114 220 114 225 0 6 -136 34 -303 63 -256 45 -514 106
-536 127 -3 3 -13 76 -22 161 -10 86 -20 159 -24 162 -5 5 -785 101 -831 102
-20 0 -21 -6 -28 -152 -4 -84 -9 -155 -11 -157 -5 -5 -325 170 -325 177 -1 4
-29 284 -64 622 -35 338 -63 616 -62 617 2 2 130 -105 287 -236 156 -131 285
-238 287 -237 1 2 -41 212 -94 468 l-95 464 326 497 325 497 -19 147 c-13 94
-16 150 -10 154 5 3 139 38 297 77 l287 72 285 -89 c157 -49 286 -88 286 -88
1 1 -5 119 -12 262 -7 143 -13 267 -13 275 -1 11 56 34 209 85 187 62 210 72
210 91 0 12 -13 115 -30 229 l-30 207 19 75 c11 41 21 76 23 78 2 1 140 -231
308 -516 167 -285 305 -517 307 -516 1 2 -83 483 -187 1071 -105 587 -190
1073 -190 1080 0 7 166 50 473 120 l472 109 220 112 220 112 248 49 247 49 72
82 72 83 879 291 879 291 -3 141 -4 141 665 347 c366 191 671 347 679 346 7
-1 70 -90 140 -197z m12873 -386 c22 -4 70 -68 274 -362 135 -196 256 -367
268 -378 11 -12 212 -134 446 -271 l425 -250 189 -21 c104 -12 191 -24 194
-27 3 -3 -427 -472 -685 -746 -33 -35 -37 -50 -133 -455 l-98 -419 -197 -425
c-138 -298 -237 -529 -331 -773 l-134 -347 110 -152 c75 -104 108 -158 104
-170 -3 -10 -324 -768 -715 -1685 l-709 -1668 -107 -104 c-60 -57 -172 -164
-250 -238 l-142 -134 -160 25 c-88 14 -169 26 -179 26 -15 0 -28 -22 -57 -90
-21 -49 -41 -90 -46 -90 -4 0 -50 15 -102 34 l-95 34 -151 -356 c-83 -196
-149 -358 -146 -360 2 -3 115 -17 250 -32 135 -15 248 -30 251 -33 8 -7 -65
-227 -75 -227 -3 0 -65 25 -136 55 -71 31 -135 54 -142 53 -16 -4 -355 -456
-345 -461 4 -3 75 -24 157 -47 83 -23 152 -44 154 -46 3 -3 -87 -263 -95 -273
-3 -3 -48 8 -180 45 l-51 15 5 93 c4 86 3 94 -14 99 -11 3 -137 33 -282 67
l-262 61 -228 147 c-125 82 -232 151 -239 155 -7 4 -38 -24 -79 -73 l-67 -80
-157 0 -157 0 -17 -61 -16 -60 -43 5 c-23 3 -105 8 -182 11 -77 3 -167 8 -201
11 l-60 6 14 90 c9 53 21 92 28 95 7 3 73 -19 146 -47 73 -29 156 -61 183 -72
l50 -19 -142 143 c-79 79 -143 146 -143 150 0 4 36 64 80 134 44 69 80 128 80
131 0 4 -96 3 -213 0 l-213 -6 -175 175 c-95 96 -189 183 -208 193 l-33 18 49
39 c39 30 87 95 219 298 93 143 170 263 172 267 2 4 -104 85 -235 180 -131 95
-248 180 -259 189 l-22 16 49 129 c27 70 46 132 42 136 -4 4 -82 37 -173 74
-91 37 -172 71 -180 75 -14 8 -12 41 17 312 17 167 32 311 32 320 1 13 -47 42
-178 108 l-180 89 20 68 c10 37 86 299 167 581 l149 512 -252 0 -252 0 54 278
c29 152 58 287 63 300 8 18 18 22 50 22 l40 0 0 190 c0 105 1 190 3 190 2 0
104 -20 227 -45 123 -25 224 -44 225 -42 1 1 12 67 25 147 12 80 26 148 29
152 3 4 115 -21 248 -56 l243 -62 215 414 c118 228 215 415 215 417 0 1 -59
10 -131 20 -102 14 -127 21 -117 30 7 6 89 61 182 121 92 60 171 118 175 129
4 11 25 139 46 285 l39 265 -45 131 -46 130 689 1049 688 1049 243 68 c133 37
250 67 261 68 10 0 73 -29 139 -65 l120 -65 56 49 c31 27 65 59 76 71 11 12
54 53 96 90 l75 69 152 -15 c108 -10 221 -30 390 -69 l237 -55 426 154 c235
85 446 163 470 175 42 19 65 20 141 5z m1898 -1654 c0 -5 -10 -15 -22 -21 -23
-12 -23 -12 -4 10 21 23 26 26 26 11z m271 -697 c207 -324 379 -593 383 -600
4 -8 -24 -26 -84 -54 -50 -23 -89 -45 -88 -49 2 -5 919 -740 965 -775 2 -1
-13 -70 -32 -154 -19 -84 -35 -158 -35 -165 0 -6 23 -20 51 -30 46 -17 50 -21
44 -43 -3 -14 -154 -514 -336 -1110 -181 -597 -328 -1090 -326 -1096 2 -6 32
-23 66 -37 34 -14 63 -29 63 -35 1 -5 -102 -69 -227 -142 -125 -72 -231 -135
-237 -141 -5 -5 34 -37 102 -82 60 -40 110 -76 110 -80 0 -4 -54 -51 -121
-105 -66 -53 -118 -99 -115 -102 3 -3 125 -74 272 -158 l267 -152 74 78 75 78
54 -27 c30 -14 54 -30 54 -35 0 -5 -382 -609 -849 -1341 l-849 -1331 44 -195
c24 -107 43 -204 44 -214 0 -18 -6 -19 -131 -12 l-131 6 -462 218 -462 218
-345 -64 c-189 -35 -346 -66 -348 -68 -2 -2 -45 -219 -96 -481 l-91 -478 109
-190 c60 -104 110 -191 111 -192 1 -2 65 103 141 232 76 129 142 235 146 235
16 0 99 -44 99 -52 0 -23 -606 -1759 -696 -1995 l-104 -272 442 -1023 c242
-563 443 -1030 445 -1038 3 -11 -150 -149 -470 -425 l-475 -410 -196 -371
c-108 -205 -196 -377 -196 -384 0 -6 18 -43 41 -82 22 -38 39 -71 37 -72 -1
-2 -181 -64 -398 -138 l-395 -135 -345 117 c-190 65 -502 174 -694 244 -192
69 -350 125 -351 124 -1 -2 -98 -151 -215 -333 -117 -181 -218 -336 -225 -343
-6 -7 -286 -90 -621 -185 l-609 -172 -6 -255 c-3 -140 -7 -292 -8 -337 l-1
-81 -47 -6 c-40 -6 -249 24 -258 36 -1 2 -53 79 -114 171 -102 152 -163 269
-149 283 3 3 63 22 133 44 136 41 170 62 201 128 26 56 14 138 -35 236 -58
118 -61 120 -180 135 -56 7 -106 9 -111 6 -16 -10 -12 3 14 48 24 40 26 62 50
412 14 204 26 382 26 396 0 23 -14 35 -95 84 -89 54 -112 75 -82 75 7 0 117
-13 244 -30 l232 -30 74 34 73 33 61 104 61 104 51 329 52 328 165 387 c135
317 175 403 225 474 33 48 62 87 65 87 2 0 149 -79 326 -175 176 -96 323 -173
326 -171 2 3 -3 121 -12 263 -9 142 -16 272 -16 290 0 29 28 58 308 319 169
158 324 303 345 324 l38 36 -183 23 c-101 13 -184 24 -186 26 -2 2 1 11 7 22
5 10 19 65 31 123 22 113 57 239 70 255 4 6 13 28 19 50 19 72 -21 157 -89
185 -36 15 -37 23 -7 42 20 13 61 11 377 -23 195 -21 366 -38 379 -38 l24 -1
-6 229 -6 229 90 22 c49 12 89 25 89 29 0 4 -15 60 -34 126 -19 65 -32 123
-30 127 3 4 42 36 87 70 45 33 86 64 91 69 4 4 -19 43 -53 88 -33 44 -61 84
-61 89 0 6 34 64 75 131 l75 121 35 241 c19 133 35 247 35 254 0 7 -44 51 -99
98 l-98 86 10 51 c5 29 16 54 24 57 8 3 53 -2 99 -12 47 -10 86 -16 88 -14 1
2 26 117 55 254 l52 250 -31 99 c-16 54 -30 104 -30 111 0 13 125 359 136 376
3 5 30 -3 61 -16 30 -14 61 -25 68 -25 8 0 48 103 104 273 85 255 96 280 171
405 44 73 80 135 80 136 0 2 -34 27 -75 56 l-76 54 58 57 c32 32 228 219 436
416 l378 359 760 1783 c417 982 759 1790 759 1798 0 7 -48 80 -107 161 -59 81
-106 154 -106 162 5 52 222 573 398 953 l207 449 89 381 c49 210 92 390 96
399 9 20 432 478 442 478 3 0 175 -264 382 -587z m-20901 165 l151 -258 -65
-252 -64 -253 19 -129 c11 -72 16 -133 12 -137 -5 -4 -95 -35 -201 -70 l-193
-64 7 -177 c4 -98 4 -178 0 -178 -4 0 -62 17 -128 37 l-121 38 -451 -114
c-248 -63 -455 -118 -460 -122 -4 -4 4 -97 18 -206 14 -110 26 -211 26 -225 0
-17 -110 -194 -326 -524 l-326 -497 22 -109 c12 -61 20 -111 18 -113 -2 -2
-110 86 -240 196 -131 110 -238 196 -238 192 -1 -33 214 -2109 219 -2115 13
-14 862 -470 866 -466 3 3 10 106 16 229 6 123 13 226 15 228 5 5 293 -27 304
-34 4 -2 13 -65 20 -140 7 -74 18 -139 24 -144 21 -17 452 -140 546 -156 52
-9 101 -18 108 -20 10 -4 -4 -37 -47 -118 l-60 -113 45 -84 c25 -47 70 -130
100 -186 l54 -101 -395 -148 c-322 -120 -395 -151 -391 -164 15 -51 328 -1462
325 -1465 -7 -7 -484 67 -487 76 -2 4 -15 5 -28 2 l-24 -6 0 151 0 151 -27 0
c-39 0 -417 31 -421 34 -1 2 4 43 12 92 9 49 20 142 25 208 l10 118 -71 79
-72 79 -122 0 -121 0 -54 82 c-53 80 -55 82 -129 110 -74 28 -76 29 -137 13
-34 -8 -67 -15 -73 -15 -7 0 -10 47 -9 148 l1 147 -79 -3 c-228 -10 -745 -40
-748 -44 -2 -2 -22 -122 -45 -266 l-40 -262 -77 -116 -77 -115 64 -64 c36 -36
61 -69 57 -77 -2 -7 -59 -107 -126 -223 -78 -136 -121 -220 -121 -238 0 -27
-2 -29 -32 -23 -18 3 -75 8 -126 12 -83 6 -95 9 -101 28 -5 12 -16 85 -26 163
-10 78 -21 146 -24 151 -4 7 -897 -153 -1225 -219 -16 -3 1 -22 77 -89 53 -47
97 -88 97 -91 0 -7 -388 -64 -393 -58 -3 2 -45 66 -96 141 -62 94 -98 139
-114 143 -29 6 -622 95 -636 95 -19 0 -12 26 64 231 41 112 72 206 68 210 -5
3 -64 32 -133 63 -69 32 -129 61 -133 65 -5 5 37 49 91 100 l100 92 46 131 46
130 -26 157 c-65 392 -98 455 -276 516 -83 28 -90 29 -155 17 -37 -6 -164 -41
-281 -77 l-213 -66 -151 91 c-83 50 -156 89 -162 87 -6 -3 -64 -42 -129 -87
-65 -45 -120 -81 -122 -78 -2 2 -20 77 -38 166 -19 90 -37 165 -39 167 -2 2
-141 16 -308 29 -168 14 -328 28 -356 31 l-51 6 74 376 c41 207 72 381 70 387
-3 6 -93 58 -201 116 -107 57 -192 108 -188 111 4 4 147 80 317 169 234 123
322 174 358 208 l47 46 0 -353 0 -353 575 774 c536 721 573 774 557 789 -28
26 -1503 1101 -1506 1097 -2 -2 -11 -55 -20 -118 -29 -200 -18 -178 -94 -179
-37 -1 -91 -5 -119 -10 -29 -4 -53 -8 -54 -7 0 1 -14 118 -32 261 l-32 260
-40 0 c-22 0 -83 -4 -135 -8 l-95 -7 235 95 c129 52 244 99 256 104 21 9 21
10 6 101 -9 54 -11 94 -6 99 5 5 59 25 119 45 l110 36 315 0 315 0 62 124 62
124 58 6 c32 3 551 40 1153 82 602 42 1097 78 1100 81 3 2 7 54 8 114 l4 109
26 0 c15 0 162 -9 327 -20 l300 -21 2185 649 c1202 358 2188 647 2192 643 3
-3 75 -122 158 -263z m23045 -2400 l410 -185 320 -62 c372 -73 2766 -642 2920
-695 55 -18 361 -157 680 -308 l580 -275 520 -338 520 -338 415 -130 c391
-121 418 -129 474 -123 l60 6 -23 -24 c-19 -20 -21 -28 -12 -44 6 -12 11 -23
11 -25 0 -2 -133 -111 -295 -242 -162 -130 -297 -241 -300 -245 -3 -5 78 -72
180 -150 102 -78 185 -144 185 -145 0 -2 -45 -44 -101 -93 l-100 -90 -72 19
c-40 10 -79 19 -88 19 -9 0 -189 -220 -422 -517 l-407 -518 -86 -45 -86 -45
-115 -170 c-64 -93 -129 -187 -145 -207 l-29 -37 51 15 c29 8 54 14 56 12 2
-3 -32 -22 -76 -43 l-79 -39 -30 -89 -30 -88 94 -101 c52 -56 95 -108 95 -117
0 -28 -17 -44 -36 -37 -17 6 -17 6 -1 -12 16 -17 11 -33 -78 -283 -52 -145
-95 -269 -95 -276 0 -7 61 -49 136 -95 l136 -82 -4 -75 -3 -74 403 -140 c221
-77 402 -145 402 -151 0 -8 -316 -750 -325 -764 -1 -1 -244 90 -540 203 -297
113 -542 202 -546 198 -4 -5 -51 -109 -105 -233 l-98 -225 -174 -224 -174
-223 40 -42 c22 -22 296 -314 610 -648 656 -698 614 -642 580 -791 -18 -78
-21 -85 -46 -90 -15 -2 -275 -33 -578 -68 l-552 -63 -78 -196 c-65 -160 -82
-195 -99 -195 -18 0 -75 -67 -382 -443 l-76 -93 71 -72 c74 -75 81 -89 57
-120 -13 -18 -37 -13 -557 106 l-543 124 -9 107 c-8 96 -10 107 -30 111 -11 3
-184 34 -384 70 l-364 64 -46 -18 c-43 -17 -77 -18 -437 -14 -214 3 -402 8
-416 11 -14 4 -57 41 -95 84 l-69 76 -260 596 -259 596 -70 -39 c-39 -21 -115
-62 -168 -90 l-98 -53 -10 26 c-5 14 -52 83 -105 152 l-95 127 0 89 0 88 170
0 c194 0 179 -10 155 100 -7 36 -11 67 -8 70 2 3 52 5 110 5 l105 0 114 379
c63 209 111 382 108 385 -9 10 -994 257 -994 250 0 -4 28 -64 62 -134 67 -136
67 -145 3 -145 -28 0 -36 10 -124 160 l-94 159 -26 -37 c-15 -20 -60 -85 -101
-144 -40 -59 -75 -106 -78 -104 -2 3 -1 88 3 189 l8 185 98 82 c55 45 99 84
99 86 0 1 -23 39 -51 83 l-51 80 11 103 12 103 104 190 c57 105 114 209 127
232 12 23 21 44 18 46 -7 6 -890 379 -911 384 -14 4 -18 -11 -25 -99 l-9 -103
-85 -28 c-46 -15 -87 -33 -91 -39 -4 -7 -22 -52 -39 -100 -18 -49 -35 -86 -39
-83 -5 2 -32 95 -62 206 l-54 201 -125 63 -125 62 -98 -33 c-69 -23 -99 -29
-102 -21 -2 7 -19 77 -36 157 -23 109 -29 151 -22 170 6 14 411 654 902 1423
490 768 891 1399 891 1401 0 3 -117 68 -260 146 -143 78 -260 146 -260 150 0
5 9 14 20 20 11 6 20 14 20 19 0 5 -36 32 -80 61 -44 29 -80 56 -80 59 0 4 35
27 78 52 l77 45 72 174 c39 96 72 182 72 191 1 11 -25 26 -83 49 -49 18 -83
37 -80 44 2 6 134 441 294 966 160 525 292 960 294 967 7 17 189 -57 661 -269z
m-19720 -2924 c319 -70 582 -128 583 -130 2 -1 7 -33 12 -69 5 -37 12 -71 17
-75 4 -4 115 -40 246 -80 131 -41 234 -77 230 -81 -5 -4 -237 -93 -518 -199
-280 -106 -512 -194 -514 -196 -4 -3 70 -82 354 -380 l100 -105 640 -121 c352
-66 643 -123 646 -127 4 -3 9 -22 12 -42 5 -35 0 -43 -102 -160 -126 -146
-361 -431 -361 -439 0 -3 46 -30 101 -60 56 -30 104 -60 106 -67 3 -8 -1 -57
-10 -111 -8 -53 -13 -100 -11 -103 2 -3 53 -36 114 -74 60 -37 110 -72 110
-77 0 -5 -29 -59 -65 -119 l-65 -111 69 -161 c62 -144 83 -181 202 -349 122
-174 134 -188 158 -184 14 3 107 8 206 11 l180 6 307 -88 308 -89 47 -82 c83
-143 157 -202 253 -202 58 0 99 18 210 93 225 151 520 409 562 491 37 73 7
175 -62 211 -16 8 -37 15 -46 15 -31 0 -134 32 -134 42 0 5 18 35 40 65 l40
56 0 234 c0 215 1 233 18 233 9 0 119 -14 245 -31 125 -18 230 -30 233 -27 2
3 13 68 22 144 l17 139 83 3 82 3 0 -28 c0 -15 -5 -98 -10 -183 -6 -85 -17
-355 -25 -599 -12 -333 -19 -449 -29 -460 -7 -9 -74 -91 -149 -183 l-137 -167
-221 -518 -221 -518 -224 -168 c-123 -92 -224 -174 -224 -182 0 -8 43 -263 95
-566 l95 -552 113 -125 c61 -68 110 -127 108 -131 -3 -3 -172 -125 -375 -270
-204 -146 -373 -268 -376 -273 -3 -4 -28 -198 -54 -430 -27 -233 -50 -426 -52
-429 -2 -3 -201 -64 -443 -135 l-441 -129 0 -530 -1 -530 -169 -250 c-94 -137
-169 -252 -168 -256 2 -4 171 -158 376 -343 l372 -337 0 -185 0 -185 -141
-221 -141 -221 160 -161 160 -161 31 -655 32 -655 -54 -269 -55 -269 130 -276
c72 -152 132 -279 134 -282 2 -4 -110 -107 -249 -230 -138 -123 -489 -434
-780 -692 l-527 -468 -532 391 c-292 216 -536 394 -543 396 -7 3 -63 -180
-163 -540 l-153 -544 61 -454 62 -454 -61 -575 c-34 -316 -63 -588 -66 -606
-5 -28 -35 -54 -253 -215 -136 -101 -287 -212 -335 -247 l-88 -64 -148 75
c-185 94 -461 251 -793 451 -167 101 -273 159 -303 165 -37 8 -126 -1 -472
-44 -235 -29 -431 -50 -434 -46 -4 4 -63 127 -132 273 l-125 266 -38 187 -37
187 -136 118 -136 118 -49 349 c-27 192 -52 358 -56 369 -5 12 -101 82 -218
160 l-211 140 -174 395 -175 396 19 183 19 184 -69 81 c-38 45 -173 200 -300
346 l-230 265 62 55 c34 30 79 71 100 90 l38 35 -60 197 -59 198 59 261 59
262 -16 134 c-18 145 -16 152 30 153 29 0 86 49 102 86 32 76 12 142 -81 274
-30 43 -55 82 -55 87 0 16 113 228 116 218 6 -19 254 -1290 256 -1313 3 -21
-17 -35 -162 -119 -91 -52 -169 -98 -174 -103 -4 -4 95 -77 220 -161 126 -83
345 -241 486 -351 142 -109 259 -198 262 -198 3 0 76 104 163 230 135 198 161
230 182 230 21 1 69 -44 236 -215 l210 -216 230 138 229 138 148 165 c146 162
151 166 290 252 78 49 145 85 149 81 3 -5 19 -46 34 -93 15 -47 30 -88 34 -92
3 -3 107 101 231 232 l225 238 125 6 c203 11 187 1 233 139 l39 118 231 116
c128 63 233 116 234 117 2 2 -28 108 -65 236 l-67 234 -60 -2 c-33 -1 -84 -5
-113 -8 l-52 -6 35 52 c29 44 35 61 35 107 0 29 -6 66 -14 81 -19 36 -109 120
-173 161 -29 18 -53 36 -53 40 0 5 123 59 246 108 6 2 89 -69 184 -157 95 -89
176 -158 180 -153 4 4 19 120 34 258 15 137 28 251 30 253 2 1 108 -54 235
-124 128 -69 233 -125 235 -123 1 2 132 186 291 409 158 223 291 410 296 415
4 6 -63 53 -162 113 -93 57 -169 107 -169 112 0 5 27 87 60 182 33 95 60 173
60 173 0 0 129 -2 287 -5 159 -3 289 -5 291 -4 1 0 -106 144 -239 320 -133
175 -243 324 -246 331 -3 6 185 287 416 624 231 337 417 616 413 620 -4 4
-185 71 -402 149 -217 79 -399 147 -404 151 -10 9 42 329 52 329 3 0 205 -67
450 -150 244 -82 448 -150 453 -150 10 0 719 945 719 958 0 4 -81 210 -180
457 l-180 450 0 337 0 338 -213 0 -213 0 -28 433 c-16 237 -32 435 -35 439 -4
5 -127 11 -275 15 l-267 6 -68 -67 -68 -68 -124 10 -124 10 -30 -36 c-16 -19
-39 -46 -50 -59 l-20 -23 -395 129 -395 130 -50 -35 c-27 -19 -72 -51 -99 -71
-39 -29 -47 -33 -44 -18 2 11 20 29 42 41 21 12 34 24 30 27 -5 3 -49 21 -99
40 -171 66 -371 159 -650 302 l-280 143 -235 62 c-224 59 -254 64 -628 110
l-394 49 -47 -29 -47 -29 -349 -17 c-327 -15 -356 -15 -455 1 -58 9 -114 19
-126 21 l-21 5 23 127 c13 70 23 137 24 148 0 16 -21 35 -80 74 -44 29 -80 55
-80 57 0 3 51 59 113 125 61 66 113 123 114 126 2 4 -29 20 -67 36 -38 15 -68
31 -66 35 3 4 68 36 146 71 136 62 141 65 135 90 -10 40 -365 1623 -368 1639
-1 11 117 59 423 174 234 88 427 162 430 164 3 3 -10 31 -27 64 -18 32 -29 59
-24 59 5 0 31 -4 60 -10 43 -8 59 -6 104 11 28 11 61 29 72 39 20 19 24 19
190 -1 135 -16 856 -162 967 -195 9 -3 43 -52 75 -110 32 -57 60 -104 64 -104
3 0 136 63 295 139 l289 140 42 63 41 63 16 220 c31 422 26 385 55 397 16 6
65 8 124 4 l98 -6 77 58 77 59 29 127 c16 69 32 126 35 126 3 0 267 -57 586
-126z m13744 -1550 c12 -39 21 -74 21 -78 0 -8 -86 50 -94 63 -8 13 35 105 44
95 4 -5 18 -41 29 -80z m-19889 -109 c0 -102 2 -185 5 -185 3 0 96 23 207 50
110 28 202 50 203 48 1 -2 8 -13 14 -26 15 -28 27 -22 34 18 5 22 12 30 27 30
14 0 24 10 31 30 6 17 16 30 22 30 7 0 22 3 35 6 l22 6 0 -146 0 -146 90 0 90
0 0 -38 c0 -21 -3 -41 -6 -44 -3 -4 -29 4 -57 17 -85 39 -133 36 -239 -12
l-58 -27 0 -133 0 -134 158 -75 c263 -126 247 -121 443 -135 96 -7 176 -13
178 -15 2 -2 -4 -19 -14 -37 l-17 -33 36 -72 c20 -39 36 -75 36 -80 0 -4 -54
-39 -121 -77 -66 -37 -123 -73 -125 -79 -2 -6 70 -185 162 -396 91 -212 169
-393 173 -402 5 -15 27 1 122 86 l116 104 153 -99 c84 -55 155 -101 158 -103
2 -3 -2 -39 -9 -81 -12 -75 -13 -78 -110 -198 l-97 -122 15 -35 c8 -19 37 -90
65 -158 l51 -123 168 7 168 7 125 -113 125 -112 -36 -71 -36 -72 37 -430 c20
-236 39 -444 41 -460 5 -27 16 -36 100 -78 l95 -47 0 -128 c0 -71 -3 -163 -6
-205 l-7 -77 -53 -17 -52 -16 -151 -531 c-182 -641 -150 -586 -343 -586 -70 0
-128 -4 -128 -8 0 -21 173 -469 191 -493 11 -15 63 -65 117 -110 53 -45 101
-85 105 -90 20 -16 -8 -50 -73 -89 -39 -23 -70 -45 -71 -49 0 -3 -6 -127 -13
-276 l-13 -270 48 -97 49 -97 -28 -20 c-17 -12 -38 -46 -56 -93 -48 -119 -120
-269 -158 -328 -20 -31 -109 -196 -198 -368 -137 -264 -161 -318 -158 -347 2
-19 2 -35 -2 -35 -3 0 -70 24 -150 54 -80 30 -146 51 -147 47 -1 -3 -18 -163
-38 -356 -19 -192 -37 -362 -39 -376 -4 -20 14 -47 94 -141 l99 -116 -39 -135
c-34 -121 -57 -173 -225 -501 l-186 -366 9 -80 c9 -71 14 -85 51 -131 41 -52
41 -52 22 -73 -22 -25 -53 -86 -71 -140 -10 -32 -9 -65 5 -190 l17 -152 -61
-272 -62 -272 40 -134 c23 -74 41 -141 41 -149 0 -8 -25 -35 -55 -60 l-55 -45
-257 53 c-519 107 -442 81 -653 221 l-185 122 -307 308 -306 309 -16 390 -17
390 -223 930 -223 930 33 705 c18 388 33 741 33 785 l0 80 -537 407 c-452 343
-757 567 -1503 1105 l-86 63 -327 -155 c-180 -85 -332 -155 -338 -155 -19 0
-218 111 -218 121 0 9 23 95 65 245 l15 51 177 -33 c98 -18 234 -40 302 -49
115 -15 129 -15 190 0 l66 17 55 85 c30 47 70 109 88 137 l32 52 -35 1002 -35
1003 -68 117 c-66 115 -91 141 -181 191 -12 7 -12 35 -1 188 11 160 11 186 -4
236 -9 30 -16 58 -16 62 0 8 513 -2 568 -11 19 -3 32 -1 32 6 0 5 -40 101 -90
212 -49 110 -87 204 -85 208 2 4 90 45 195 91 104 46 190 86 190 89 0 3 -96
131 -214 285 -118 154 -212 281 -211 283 3 3 195 -23 242 -34 16 -3 56 -54
133 -169 61 -91 113 -165 117 -165 16 0 1159 172 1173 176 10 4 -9 26 -60 72
-41 37 -90 81 -109 98 l-35 31 140 26 c76 15 157 29 179 33 l40 6 17 -128 c10
-70 23 -131 29 -135 6 -4 58 -10 115 -14 92 -6 104 -9 104 -26 0 -10 -23 -127
-50 -260 -28 -133 -48 -244 -45 -247 4 -5 697 116 703 123 3 2 -2 147 -11 322
l-15 318 156 270 c85 149 160 278 166 287 9 15 1 28 -48 77 l-59 60 26 39 c21
33 30 70 53 218 15 99 29 181 30 183 2 2 57 7 121 11 65 4 126 8 136 8 16 2
17 -13 17 -183z m15950 -173 c14 -5 93 -45 175 -89 83 -44 239 -115 348 -158
l199 -78 -6 -31 c-4 -17 -18 -92 -32 -166 -13 -74 -27 -141 -30 -149 -4 -11 0
-11 14 2 24 22 100 48 107 37 3 -5 6 -70 7 -145 1 -129 2 -136 22 -140 12 -2
183 -13 381 -23 403 -21 361 -26 468 55 l57 43 109 0 109 0 27 36 c16 21 33
33 41 30 8 -3 77 -46 153 -96 77 -50 155 -95 173 -100 18 -5 103 -25 188 -45
l155 -36 -3 -89 -4 -89 74 -21 c40 -12 81 -24 91 -26 23 -7 23 -14 -23 -185
-22 -83 -40 -156 -40 -163 0 -8 41 -21 110 -36 l110 -24 -6 -36 c-4 -19 -17
-86 -29 -148 l-23 -113 104 -91 c57 -50 104 -92 104 -94 0 -21 -42 -279 -47
-288 -3 -6 -55 -91 -115 -188 l-110 -178 36 -49 36 -49 -56 -42 c-32 -24 -78
-48 -108 -56 -42 -11 -62 -24 -110 -75 -100 -106 -114 -176 -67 -338 17 -58
29 -107 26 -109 -2 -3 -95 5 -206 17 l-202 22 -188 -143 c-104 -79 -189 -147
-189 -153 1 -5 13 -64 29 -130 l27 -120 78 -20 c69 -17 76 -22 71 -40 -3 -11
-17 -72 -32 -135 l-26 -115 -258 -165 c-142 -91 -259 -167 -259 -171 0 -3 108
-18 240 -34 132 -16 240 -32 240 -36 0 -4 -72 -74 -160 -156 l-161 -148 5
-102 c2 -57 2 -103 0 -103 -2 0 -91 47 -196 104 -106 58 -200 108 -209 111
-13 5 -50 -41 -160 -196 l-143 -202 -179 -421 -180 -421 -51 -326 c-42 -262
-56 -331 -73 -355 l-22 -30 -233 29 c-301 38 -295 39 -445 -106 l-105 -102 11
-95 c7 -52 14 -104 16 -115 3 -14 42 -43 110 -84 l105 -64 -5 -61 c-3 -34 -12
-156 -20 -272 l-15 -211 -84 -148 -85 -149 32 -40 c18 -23 54 -67 80 -99 26
-33 47 -63 47 -68 0 -5 -19 -47 -42 -93 l-42 -85 53 -142 c50 -134 63 -158
215 -385 l161 -242 180 -32 181 -33 199 14 200 14 3 26 3 26 97 -23 c105 -25
155 -29 217 -14 36 8 43 6 80 -24 67 -54 121 -70 227 -64 l91 6 77 -64 c74
-61 79 -63 111 -54 58 17 62 12 26 -32 -47 -59 -135 -303 -193 -530 l-46 -183
6 -230 c4 -126 11 -372 17 -545 l11 -315 -72 -229 c-66 -211 -76 -235 -130
-315 -35 -51 -85 -108 -124 -141 l-65 -55 0 -115 -1 -115 32 -27 33 -26 -24
-79 c-12 -43 -24 -79 -25 -80 -1 -2 -137 -15 -300 -29 -251 -22 -300 -24 -310
-13 -7 8 -309 485 -672 1061 l-658 1047 -426 522 -425 522 -385 209 c-211 114
-387 211 -391 216 -4 4 -18 134 -32 290 -14 156 -27 286 -30 289 -3 2 -208
-36 -456 -86 l-452 -91 -295 74 c-162 41 -297 76 -298 77 -2 2 -47 88 -100
192 -58 111 -92 187 -84 187 7 -1 39 -7 70 -14 52 -13 58 -12 62 2 3 10 28
121 56 247 28 127 53 237 55 246 4 13 -124 166 -319 379 l-41 45 -124 15 -124
15 -12 43 c-7 23 -10 42 -6 42 4 0 39 -11 78 -24 l71 -24 123 179 c82 117 130
178 142 179 10 0 324 -38 697 -85 373 -47 690 -85 702 -85 24 0 24 3 75 387
28 213 50 390 48 392 -2 2 -323 95 -712 208 -389 112 -714 206 -721 208 -16 6
380 460 416 479 15 7 77 30 139 52 l111 38 68 185 68 186 119 163 c85 117 122
160 128 150 5 -7 9 -47 9 -88 l0 -75 332 -489 c259 -381 334 -484 339 -470 4
11 40 273 79 584 40 311 73 566 75 568 1 2 160 -44 353 -103 193 -58 354 -105
357 -105 3 0 5 36 5 80 0 44 1 80 3 80 1 0 40 -7 87 -15 47 -8 85 -15 86 -15
1 0 7 40 14 89 7 49 16 95 20 101 6 10 49 5 189 -20 100 -18 184 -30 187 -27
3 3 43 233 90 513 l85 507 -102 153 c-56 85 -109 156 -118 158 -9 3 -123 28
-253 57 -131 29 -238 56 -238 60 0 4 41 117 90 250 l90 243 -70 169 c-39 94
-69 171 -68 172 2 2 80 17 173 34 94 18 177 34 186 37 13 4 10 31 -25 224
l-39 219 41 45 c23 25 42 52 42 59 0 7 54 155 121 328 l121 314 38 305 c21
168 44 380 51 472 l13 167 80 50 c45 27 114 67 155 89 l73 40 87 -23 c47 -13
97 -28 111 -33z m-13895 -896 c30 -135 41 -118 -135 -198 -85 -39 -167 -71
-182 -72 -19 -1 -63 -34 -158 -120 -73 -65 -135 -114 -139 -110 -4 5 -25 49
-45 98 -30 71 -35 91 -24 97 92 55 655 377 659 378 4 1 14 -32 24 -73z m20257
-297 l447 -211 243 -8 c134 -5 292 -12 352 -14 l108 -6 -6 33 c-6 33 -6 33 48
50 29 10 60 15 68 12 8 -3 29 -64 52 -148 55 -206 65 -225 165 -319 134 -125
164 -143 239 -143 59 0 64 2 100 40 30 32 45 62 71 145 18 58 37 109 41 114 5
5 52 -22 105 -59 53 -37 99 -64 102 -61 3 3 11 60 18 126 7 66 14 122 16 124
7 6 254 -102 254 -111 0 -4 -26 -56 -58 -115 l-58 -108 -20 -162 c-11 -90 -18
-183 -16 -208 5 -43 4 -46 -39 -80 -35 -28 -44 -42 -48 -75 -5 -38 -26 -545
-26 -611 0 -29 11 -38 186 -153 102 -66 189 -121 193 -121 4 0 29 32 55 70 27
39 50 70 52 70 2 0 18 -22 34 -49 23 -37 35 -48 49 -44 21 5 21 -6 37 -626 l6
-244 105 -139 105 -139 24 -152 c14 -84 27 -157 29 -164 4 -11 288 93 383 141
l48 24 204 -471 205 -470 133 -147 132 -147 504 -7 c424 -6 509 -5 537 7 32
13 53 11 264 -27 l230 -41 3 -101 3 -100 602 -138 c331 -75 610 -139 619 -142
16 -5 14 -11 -13 -59 l-30 -53 118 -37 c65 -20 169 -53 232 -73 l115 -37 51
-195 c28 -107 55 -207 58 -222 6 -24 2 -29 -50 -59 -47 -27 -489 -304 -502
-315 -2 -2 7 -114 19 -249 l21 -246 -110 -264 c-61 -144 -111 -265 -111 -267
0 -3 99 -45 220 -94 l220 -89 -7 -60 c-16 -134 -32 -111 187 -273 107 -79 204
-150 214 -157 18 -13 18 -18 6 -55 -13 -39 -14 -40 -59 -40 -25 1 -327 22
-671 49 -344 26 -628 45 -632 42 -4 -3 -90 -191 -192 -416 l-186 -410 75 -199
c41 -109 75 -204 75 -210 0 -6 -21 -22 -47 -36 -40 -21 -79 -65 -249 -285
l-201 -260 -147 -5 -147 -5 249 -332 249 -332 7 -163 c3 -90 9 -217 12 -283
l5 -120 -157 -139 -156 -140 43 -40 c24 -23 66 -60 92 -83 l48 -42 -61 -91
c-33 -50 -63 -97 -67 -105 -3 -10 39 -74 111 -170 l115 -154 -70 -188 c-39
-103 -80 -211 -90 -239 l-19 -51 -64 -7 c-56 -6 -75 -2 -167 30 -57 19 -107
39 -112 43 -4 4 6 26 22 48 l30 41 -66 214 c-37 117 -68 215 -70 217 -1 2 -87
17 -190 32 -258 38 -519 95 -765 168 l-208 61 -204 0 -204 0 -67 -30 c-37 -16
-68 -30 -70 -30 -1 0 -31 61 -66 135 -73 155 -49 140 -241 151 -65 3 -118 9
-119 12 0 4 -8 66 -17 138 l-17 132 -133 126 c-82 77 -142 126 -154 126 -12 0
-156 -18 -322 -40 -232 -31 -385 -59 -666 -120 l-365 -80 -220 73 c-202 68
-731 215 -739 206 -3 -2 11 -172 29 -378 l33 -373 -95 -207 c-218 -474 -357
-741 -393 -761 -23 -12 -64 -82 -75 -125 -4 -16 -10 -77 -14 -135 l-6 -105
-170 -37 c-93 -21 -177 -37 -185 -37 -8 0 -91 94 -185 209 -93 116 -177 219
-186 230 -16 19 -22 18 -420 -56 l-403 -76 -21 26 c-11 14 -53 84 -94 156 -41
71 -78 130 -82 130 -5 0 -9 10 -9 23 0 28 -42 71 -90 90 -19 8 -71 21 -114 28
l-79 13 6 127 6 127 -37 6 c-20 3 -539 70 -1152 147 -991 125 -1126 140 -1211
135 l-97 -6 36 116 36 117 -42 36 -43 37 26 24 c30 28 111 145 153 220 17 30
66 172 111 315 l80 261 -10 214 c-5 118 -13 363 -18 545 l-8 330 43 165 c23
91 62 217 86 280 42 108 51 123 161 258 64 79 117 148 117 154 0 15 -242 273
-260 276 -8 1 -55 -8 -103 -21 l-88 -24 -66 53 c-63 50 -68 52 -117 48 -174
-13 -174 -13 -193 8 -10 11 -47 40 -84 64 -77 52 -117 56 -194 20 l-51 -23
-109 26 -110 27 0 188 0 188 525 149 c289 81 541 153 561 158 33 10 51 34 224
301 103 159 191 290 196 290 5 0 123 -41 261 -91 139 -50 422 -148 628 -219
l375 -127 609 209 c335 114 611 210 614 212 2 3 -38 76 -88 163 l-92 158 20
40 c11 22 78 149 149 281 l128 242 535 462 c294 254 534 467 533 474 -2 6
-210 491 -463 1079 -253 587 -460 1071 -460 1075 0 4 32 90 71 192 73 189 769
2194 769 2214 0 6 -130 76 -288 155 l-288 144 22 114 c12 63 24 116 26 117 4
3 366 73 388 75 8 1 216 -94 462 -210z m-7564 -88 c20 -16 59 -52 85 -79 l49
-49 -26 -84 c-23 -76 -32 -89 -91 -149 l-66 -66 28 -152 c15 -83 24 -154 21
-157 -3 -3 -120 -27 -259 -53 l-254 -48 -3 -210 -2 -211 112 -17 c173 -26 164
-22 182 -67 9 -22 16 -45 16 -52 0 -7 -58 -168 -128 -358 -71 -189 -128 -345
-128 -346 1 -1 154 -36 341 -77 187 -42 350 -78 363 -81 12 -3 38 -29 58 -60
l36 -54 -51 -307 c-29 -170 -53 -310 -55 -312 -2 -2 -87 12 -189 30 -214 39
-187 51 -208 -89 -7 -46 -17 -83 -23 -83 -6 0 -49 7 -96 15 -133 23 -130 24
-130 -39 l0 -53 -327 98 c-180 54 -330 95 -334 91 -3 -4 -25 -160 -48 -347
-24 -187 -46 -353 -50 -368 -6 -26 -12 -20 -97 105 l-92 134 -9 155 -9 156
-89 84 c-50 47 -115 108 -146 137 l-55 51 -251 -342 -250 -342 -48 -132 c-26
-72 -50 -135 -54 -141 -3 -5 -53 -26 -111 -47 l-105 -37 -378 -435 c-208 -239
-377 -436 -375 -438 2 -1 369 -108 816 -238 447 -129 815 -237 819 -240 7 -7
-16 -220 -26 -235 -4 -7 -232 18 -663 72 l-657 82 -108 -154 c-59 -85 -111
-159 -114 -165 -4 -6 -97 21 -235 67 -125 41 -229 74 -231 73 -5 -6 209 -792
218 -797 4 -3 79 -13 166 -23 l158 -17 43 -46 c23 -26 67 -74 96 -108 l55 -62
-11 -47 c-6 -29 -15 -47 -21 -44 -32 11 -448 100 -452 95 -2 -2 119 -240 270
-529 l274 -524 393 -98 393 -98 324 66 c179 36 326 64 327 62 1 -1 10 -92 20
-202 9 -110 22 -205 28 -211 6 -7 202 -115 435 -240 l424 -229 401 -493 401
-492 653 -1036 c359 -570 652 -1037 650 -1038 -2 -2 -113 -88 -248 -192 l-245
-190 -298 -78 -299 -79 -836 -445 c-461 -244 -842 -446 -848 -449 -7 -3 -15
20 -20 64 l-9 68 -260 11 c-143 7 -359 15 -480 19 l-220 7 -105 -75 c-70 -50
-106 -71 -108 -61 -7 29 79 696 114 886 l16 87 104 41 c168 66 122 81 450
-155 158 -114 293 -209 300 -212 10 -4 295 239 401 341 19 19 22 38 33 223
l12 203 -158 203 -159 204 -195 12 c-230 14 -300 21 -300 30 0 4 200 120 445
257 244 137 445 252 445 255 0 6 -624 558 -647 572 -7 4 -326 -154 -740 -366
l-728 -374 -149 17 -149 16 -356 -113 c-195 -62 -359 -113 -363 -113 -4 0 -91
53 -193 118 l-186 119 -322 -95 -322 -95 -170 -4 c-93 -2 -216 0 -273 4 l-102
8 -116 245 -116 245 49 245 49 245 -36 723 -36 723 -117 117 -116 117 99 155
99 155 1 300 0 300 -321 289 c-176 159 -323 294 -325 301 -3 6 49 91 116 189
l120 176 0 468 0 467 425 124 c233 68 428 127 433 130 4 3 32 213 61 466 29
253 55 463 59 466 4 3 211 151 460 329 249 177 451 326 450 331 -2 4 -88 103
-193 219 l-190 212 -72 411 c-39 227 -72 423 -72 437 0 21 30 48 183 162 l183
136 228 535 228 534 168 204 167 203 6 151 c3 82 9 234 14 336 l7 186 285 -68
c157 -38 290 -69 296 -69 8 0 5 28 -8 86 -11 47 -18 87 -16 90 4 3 236 -89
434 -172 6 -3 46 56 89 131 58 104 81 136 94 132 9 -3 236 -98 504 -211 269
-113 491 -206 493 -206 3 0 56 105 118 233 l113 234 617 -88 c610 -88 618 -89
654 -118z m-15622 93 c-3 -8 -11 -14 -19 -14 -11 0 -12 11 -3 58 l10 57 9 -43
c5 -24 6 -50 3 -58z m20064 -17 c29 -97 29 -98 14 -165 -9 -37 -17 -68 -19
-70 -8 -8 -115 22 -115 32 0 10 41 170 72 281 6 22 12 36 14 30 2 -5 17 -54
34 -108z m-15581 -1143 c263 -32 321 -42 521 -94 l225 -59 240 -125 c364 -189
747 -355 876 -379 50 -9 61 -8 101 11 24 12 49 22 54 22 5 0 203 -63 439 -140
236 -77 432 -140 437 -140 4 0 33 34 65 76 l57 76 114 -7 114 -7 73 72 74 73
71 -6 c40 -3 74 -8 77 -10 4 -4 62 -810 63 -866 l0 -24 203 4 202 4 3 -223 2
-223 160 -399 160 -400 -246 -329 -245 -330 -517 174 c-284 96 -517 173 -518
172 0 -1 -37 -204 -81 -452 -80 -449 -80 -450 -59 -461 12 -6 169 -64 349
-129 246 -89 326 -122 322 -132 -3 -8 -167 -251 -366 -541 -199 -289 -364
-532 -366 -539 -3 -7 19 -46 49 -86 30 -39 58 -78 63 -86 5 -8 -54 28 -131 80
-76 53 -145 99 -151 103 -10 6 -13 -62 -13 -326 l0 -333 55 -39 c30 -22 55
-41 55 -42 0 -1 -32 -94 -70 -205 -40 -114 -66 -205 -61 -208 200 -120 260
-157 261 -164 0 -6 -229 -334 -255 -365 -1 -1 -141 73 -311 166 -250 136 -310
166 -315 153 -3 -9 -14 -94 -24 -188 -10 -95 -21 -173 -25 -173 -3 0 -17 11
-30 25 -13 14 -28 25 -33 25 -12 0 -910 -370 -920 -380 -8 -7 272 -220 353
-269 46 -27 33 -27 -152 4 -83 14 -153 23 -156 21 -4 -5 116 -287 223 -521
l32 -71 179 12 c98 7 207 15 242 18 34 3 62 2 62 -2 0 -4 -80 -47 -178 -96
l-179 -89 -27 -83 c-15 -46 -28 -84 -29 -85 -1 0 -54 -4 -118 -9 l-116 -8
-107 -110 -108 -111 -172 115 -171 114 -5 -165 -5 -164 -152 -94 -153 -94
-146 -164 c-137 -154 -152 -167 -257 -231 l-112 -68 -175 181 -175 180 -161
-1 -161 0 -113 -165 c-62 -91 -115 -167 -119 -169 -4 -3 -65 40 -136 96 -72
55 -149 113 -173 129 -23 17 -40 34 -37 39 3 4 30 22 60 39 31 18 53 36 50 43
-8 24 -346 1761 -343 1763 2 1 46 36 99 78 l95 76 50 -15 c69 -22 121 -12 239
44 125 61 154 94 210 243 l40 108 140 111 c77 60 139 116 137 123 -2 9 -110
280 -116 294 -1 1 -52 8 -113 16 l-112 15 -136 103 c-133 101 -136 104 -130
135 5 30 2 34 -60 78 -36 26 -65 51 -65 57 0 23 265 529 310 590 15 22 56 103
90 182 35 78 64 143 65 145 1 1 55 9 120 17 65 8 120 17 122 19 3 2 -48 106
-111 229 l-117 225 7 161 7 161 37 21 c21 12 53 45 73 75 31 47 36 65 42 139
8 94 2 152 -20 195 -8 16 -54 64 -102 107 -47 43 -104 94 -125 113 -22 20 -41
48 -44 66 -6 29 -1 35 77 95 l83 64 143 504 c78 277 144 505 145 506 2 1 37
13 78 27 l75 25 6 129 c4 71 10 251 14 401 l7 272 -109 54 -109 55 -28 334
-29 333 68 134 67 134 -24 22 c-21 21 -380 346 -385 350 -2 1 37 2 85 3 48 1
242 9 431 18 303 14 347 18 375 35 17 10 44 19 60 19 16 0 162 -16 325 -36z
m22115 -710 c20 -3 36 -9 36 -13 0 -3 -16 -63 -37 -133 l-37 -128 -184 0
c-170 0 -183 -1 -178 -17 10 -37 28 -135 24 -138 -2 -2 -34 64 -72 146 -38 82
-67 151 -65 153 2 1 111 20 241 42 l236 38 -14 28 c-18 34 -18 42 0 35 8 -3
31 -9 50 -13z m-28685 -2736 c268 -194 685 -504 928 -688 l442 -335 1 -60 c0
-33 -13 -364 -30 -735 l-31 -675 225 -931 224 -931 18 -436 18 -436 303 -303
303 -303 -410 -410 -410 -410 -410 -838 -410 -837 0 -629 0 -628 -246 -301
-246 -301 -104 90 -103 91 -259 -18 -259 -18 -393 127 c-216 70 -394 126 -396
124 -2 -2 12 -81 31 -177 l35 -173 -80 -108 c-44 -60 -80 -114 -80 -120 0 -5
43 -61 95 -124 l96 -113 -35 -139 c-34 -133 -34 -139 -17 -158 10 -11 56 -65
104 -120 l86 -101 -47 -192 -46 -193 34 -215 34 -215 -84 -294 c-46 -162 -87
-300 -90 -305 -7 -11 -288 -81 -319 -79 -9 0 -37 10 -64 22 l-47 22 89 100
c49 55 87 103 84 107 -2 4 -93 68 -202 142 -108 74 -202 141 -208 148 -6 7
-62 162 -123 343 -62 182 -116 333 -119 336 -3 4 -136 -31 -296 -77 -270 -78
-306 -86 -515 -113 -215 -28 -229 -32 -313 -71 l-88 -42 -432 -34 c-238 -19
-439 -34 -447 -34 -9 0 -100 -61 -203 -135 l-187 -135 -150 120 -150 121 -223
-228 c-122 -125 -251 -258 -285 -294 l-63 -67 58 12 c57 12 63 11 242 -39 129
-36 186 -56 193 -69 6 -10 6 -21 2 -25 -7 -6 -1792 -226 -1895 -233 -14 -1
-102 32 -195 74 l-169 76 -223 -17 -223 -17 -40 27 -40 26 156 93 c85 51 155
97 155 103 0 9 -325 625 -370 702 l-18 30 392 675 392 675 -228 379 c-125 209
-226 381 -225 383 2 1 43 -4 91 -13 49 -8 94 -13 100 -11 7 3 92 182 190 398
98 217 183 399 188 405 5 7 135 81 288 165 l280 153 0 60 c0 249 -22 1841 -25
1844 -2 2 -61 18 -132 36 l-128 32 0 185 0 184 215 173 c118 95 221 176 228
180 7 5 80 271 163 592 82 321 152 587 155 592 3 4 52 8 109 8 l103 0 -5 63
c-3 34 -15 169 -27 299 l-22 237 76 188 77 188 284 128 c156 71 288 133 294
138 5 6 12 48 16 94 3 47 8 88 12 92 4 4 134 -7 289 -25 155 -17 284 -30 285
-28 2 2 43 155 91 340 48 184 92 340 97 345 6 4 117 50 248 101 130 51 237 97
237 102 0 4 -63 128 -141 274 -78 146 -137 269 -133 274 5 4 196 77 424 161
228 84 417 154 420 156 2 2 -17 88 -42 190 -44 177 -45 188 -30 209 10 13 22
24 27 24 6 0 126 -70 268 -155 142 -85 262 -155 265 -154 4 0 126 157 272 349
146 192 272 352 280 354 8 3 146 31 305 62 160 31 294 60 299 65 5 4 21 140
37 301 24 251 40 361 54 377 2 2 67 -31 144 -73 78 -42 145 -76 150 -76 5 0
150 67 323 149 172 82 315 150 316 150 2 1 223 -158 491 -351z m4731 -2902
c195 -73 209 -80 304 -152 54 -42 110 -79 123 -83 23 -6 21 -8 -27 -45 -58
-44 -62 -52 -114 -192 -37 -99 -38 -102 -84 -123 -45 -21 -49 -21 -85 -6 -33
14 -50 14 -115 5 -43 -7 -83 -17 -89 -22 -17 -13 -17 -16 12 83 13 46 25 89
25 96 0 7 -42 61 -93 120 -50 59 -98 116 -105 125 -21 26 5 281 27 275 9 -3
108 -39 221 -81z m-10935 -1678 c-2 -7 -9 -33 -15 -58 -13 -50 -23 -42 -35 28
-7 42 -7 42 24 42 20 0 29 -4 26 -12z m-125 -117 c41 -16 76 -35 78 -42 3 -19
-204 -820 -215 -829 -4 -4 -114 -91 -244 -194 l-236 -187 -6 -366 c-4 -202 -5
-369 -3 -371 3 -2 64 -19 136 -37 72 -18 133 -35 136 -37 2 -3 7 -342 10 -754
l7 -749 -249 -136 -249 -136 -158 -349 c-87 -192 -159 -350 -160 -351 -1 0
-137 21 -302 47 -165 26 -301 47 -301 46 -1 0 153 -257 342 -571 189 -313 344
-575 344 -581 0 -6 -173 -310 -385 -675 -225 -386 -383 -669 -380 -678 3 -8
78 -149 165 -312 88 -164 160 -303 160 -308 0 -6 -77 -56 -170 -112 -104 -62
-169 -107 -166 -114 2 -7 50 -85 105 -173 l100 -160 -501 -1382 c-275 -760
-498 -1383 -496 -1386 3 -2 312 32 689 75 376 43 685 77 687 76 3 -2 -923
-1834 -931 -1841 -2 -2 -108 108 -235 245 l-230 250 -424 -256 c-232 -140
-424 -256 -425 -257 -1 -1 121 -236 272 -521 150 -286 271 -522 269 -525 -3
-2 -347 -28 -766 -57 -418 -28 -762 -54 -765 -56 -2 -3 -65 -409 -140 -904
-74 -494 -137 -900 -139 -902 -1 -2 -199 4 -440 14 -240 9 -440 13 -444 8 -4
-4 -1135 -1740 -2514 -3857 l-2506 -3849 0 -313 0 -312 -167 -172 -168 -172
-654 61 -655 61 -28 27 -29 27 501 501 500 500 0 277 0 278 441 874 442 875
61 3 61 3 166 699 167 698 -79 215 c-43 118 -79 220 -79 228 0 8 8 20 18 27
11 7 51 43 91 80 l72 67 -55 142 c-41 106 -52 145 -43 151 7 5 17 12 23 16 7
4 21 152 38 387 15 209 29 394 32 412 4 27 42 65 247 244 133 116 245 217 248
223 4 6 35 94 70 195 l64 183 335 245 336 244 59 661 60 660 263 181 262 180
15 51 c8 28 39 140 70 248 l55 197 596 976 596 976 -77 171 c-42 93 -73 173
-69 178 5 4 66 34 136 66 l128 59 0 198 c0 128 4 197 10 197 6 0 42 -16 80
-35 l69 -35 40 123 c22 67 76 235 120 373 l81 251 512 273 c282 150 515 274
517 276 2 2 19 160 37 351 18 190 34 354 36 364 3 14 83 -11 533 -172 291
-104 532 -188 536 -187 3 2 -92 143 -212 313 -120 171 -218 314 -219 318 0 5
22 6 50 2 l50 -7 0 34 c0 18 -25 262 -55 542 l-54 508 180 239 179 239 -145
325 c-93 209 -145 336 -145 357 1 18 40 376 88 795 l88 761 -271 500 c-265
489 -271 500 -339 563 -37 35 -64 65 -59 66 5 2 65 -5 133 -16 69 -10 126 -18
127 -17 1 1 -102 120 -228 264 -126 144 -228 266 -225 271 3 4 26 14 51 21 34
10 44 17 41 29 -3 9 -57 229 -120 490 l-115 474 68 81 c429 509 484 571 504
568 12 -1 158 -27 325 -58 167 -30 307 -54 312 -52 21 7 613 740 736 910 l136
188 213 0 c117 0 226 -3 242 -6 29 -6 34 -16 129 -255 54 -137 102 -249 105
-249 3 0 252 176 554 391 l550 390 193 222 c107 122 198 226 202 230 4 5 65 2
135 -7 l127 -17 59 53 c32 29 105 97 162 150 l103 97 124 9 c188 14 199 13
280 -17z m22571 -1348 c54 -47 99 -87 99 -89 0 -1 -161 -92 -358 -203 -197
-111 -366 -207 -376 -214 -18 -13 -14 -25 59 -218 43 -112 81 -208 85 -212 4
-4 128 -16 276 -27 148 -11 269 -19 270 -20 1 0 38 -48 84 -106 l83 -106 -6
-88 -6 -88 -43 -40 c-24 -22 -57 -51 -74 -66 l-31 -26 -234 168 c-224 161
-237 169 -299 179 -64 10 -68 9 -208 -38 -234 -80 -323 -132 -360 -213 -37
-77 -80 -349 -147 -918 l-37 -307 39 -72 c36 -69 42 -75 138 -136 55 -34 105
-63 111 -63 6 0 85 52 175 116 l164 115 65 -5 c36 -3 151 -8 255 -11 105 -3
211 -8 237 -11 l46 -6 7 -59 c5 -42 38 -131 116 -316 105 -247 139 -357 139
-448 l0 -23 -197 -4 c-144 -4 -214 -9 -258 -22 -83 -23 -244 -105 -337 -171
l-78 -56 0 -113 0 -113 203 -166 c144 -119 209 -167 227 -167 14 1 156 13 315
29 160 15 291 28 292 27 0 -1 9 -179 18 -396 9 -217 19 -398 23 -401 4 -3 102
-30 217 -59 146 -36 256 -57 360 -69 l149 -16 357 -770 356 -769 -32 -46 c-46
-64 -85 -144 -110 -225 l-22 -70 -134 -62 c-74 -34 -207 -92 -297 -129 l-163
-67 -93 -131 -93 -131 -15 -291 -15 -292 -88 -158 c-48 -88 -96 -173 -106
-189 l-18 -30 90 -199 91 -199 -153 -361 c-83 -199 -155 -367 -158 -374 -5 -8
-89 48 -260 173 -139 102 -253 185 -255 185 -1 0 -47 -95 -101 -210 -54 -116
-102 -209 -106 -208 -5 2 -232 248 -505 548 -272 300 -506 556 -519 569 l-23
24 13 -64 c50 -242 227 -1170 224 -1173 -2 -2 -215 19 -474 46 -454 48 -471
49 -502 33 l-32 -18 -113 86 -113 85 -144 20 -144 19 -144 -58 c-269 -108
-744 -291 -747 -288 -1 2 -35 77 -76 166 l-73 161 -183 76 c-100 42 -189 76
-196 76 -8 0 -77 -25 -153 -56 -77 -31 -161 -64 -187 -75 l-46 -18 -119 159
c-65 88 -122 159 -126 160 -5 0 -97 -60 -204 -134 -181 -125 -197 -134 -217
-121 -11 7 -172 110 -356 229 -184 118 -337 211 -338 205 -4 -9 24 -195 34
-230 7 -25 -233 -155 -258 -140 -9 5 -193 155 -408 332 l-392 321 -966 -177
c-532 -97 -974 -178 -982 -181 -8 -2 -82 -129 -164 -281 l-148 -278 -930 -430
c-589 -272 -935 -437 -943 -450 -7 -11 -52 -110 -100 -220 -49 -110 -93 -205
-99 -211 -6 -6 -199 -35 -430 -65 l-418 -53 -111 -76 -111 -75 -109 -190
c-123 -214 -408 -693 -459 -771 -25 -39 -112 -116 -356 -315 -290 -237 -326
-263 -355 -261 -17 2 -585 61 -1261 133 -676 71 -1230 128 -1231 127 -1 -2
-39 -75 -84 -163 -46 -88 -87 -164 -92 -169 -5 -6 -65 -1 -152 12 l-144 21
-513 -288 c-282 -159 -516 -293 -521 -298 -7 -7 -39 -331 -39 -399 l0 -24
-230 0 -230 0 5 -22 c2 -13 12 -66 20 -118 8 -52 18 -105 20 -117 4 -18 -22
-44 -161 -160 l-167 -138 -261 -120 -261 -120 -3 -43 c-4 -48 11 -46 -126 -22
-33 5 -61 9 -62 7 -2 -2 -94 -167 -205 -368 -110 -200 -203 -366 -205 -368 -2
-3 -126 8 -275 23 -148 16 -272 26 -275 23 -3 -2 11 -44 30 -91 l35 -87 -42
-18 c-23 -10 -108 -44 -189 -76 -103 -41 -148 -63 -148 -74 0 -9 13 -63 29
-121 17 -57 26 -107 22 -110 -4 -3 -167 -112 -362 -244 -195 -131 -358 -242
-363 -247 -4 -4 16 -49 45 -100 30 -52 55 -96 57 -100 3 -8 -163 -119 -177
-119 -5 0 -39 48 -76 108 -37 59 -69 109 -71 111 -2 2 -101 -83 -221 -188
l-218 -191 -16 38 c-33 75 -34 71 52 172 44 52 83 101 86 108 3 7 -36 109 -87
227 -67 155 -97 215 -109 215 -9 0 -54 -12 -100 -25 -47 -14 -86 -25 -88 -25
-13 0 3 110 28 191 29 94 37 107 135 232 100 128 104 134 104 183 0 48 1 51
23 47 44 -9 209 213 509 682 l270 424 30 283 31 283 -138 224 -138 224 13 180
13 180 179 244 c169 229 187 260 318 511 138 267 138 267 161 390 l23 124 141
134 142 134 12 132 c19 209 7 185 134 261 62 37 118 71 126 76 9 6 20 50 30
118 l16 108 103 56 c56 31 105 58 107 61 3 2 -1 50 -8 105 l-13 100 89 7 c50
3 123 6 164 6 86 0 82 -11 52 144 -15 80 -17 111 -9 116 6 4 57 10 112 13 55
3 101 7 103 9 2 2 -3 52 -11 112 -7 60 -12 111 -10 113 2 2 58 -23 124 -56 67
-33 123 -57 125 -53 2 4 22 94 43 200 l39 192 85 36 c47 19 132 52 190 71 98
34 117 45 280 166 96 71 176 130 177 131 1 1 7 39 13 86 6 47 13 86 14 87 1 1
65 -19 141 -44 91 -29 165 -47 212 -50 l72 -6 -30 -43 c-16 -24 -43 -80 -61
-126 -17 -46 -32 -84 -33 -85 -1 -2 -74 22 -163 51 -89 30 -162 50 -162 45 0
-5 20 -101 45 -213 l46 -204 -65 -283 c-36 -155 -65 -283 -63 -284 1 0 132
-24 292 -53 l289 -52 103 61 c92 55 120 66 254 99 83 21 152 40 153 42 2 1 36
48 77 103 61 82 77 113 92 171 l19 71 94 38 94 38 115 210 115 210 0 99 c0 98
1 100 34 144 l34 45 89 -105 c48 -57 91 -101 95 -98 3 4 66 152 138 329 l133
322 -84 106 c-46 59 -108 138 -138 176 l-53 69 17 194 c10 107 15 201 12 209
-3 8 -44 38 -92 67 -47 29 -88 56 -90 60 -3 4 131 108 298 230 166 123 305
226 309 229 4 3 -35 184 -86 401 l-93 395 -255 3 -256 2 5 143 5 142 -127 134
-128 135 231 228 231 228 -75 282 c-41 155 -74 288 -74 295 0 8 29 112 65 231
65 217 131 404 158 445 8 12 152 191 321 397 l306 374 0 646 0 646 381 780
381 779 406 408 c224 224 411 407 415 407 5 0 77 -45 161 -100 l153 -100 209
-46 c115 -24 297 -63 404 -85 107 -22 198 -43 202 -47 3 -4 133 -153 287 -332
322 -372 291 -311 267 -534 l-12 -119 205 -467 205 -466 194 -129 c106 -71
195 -132 198 -136 2 -4 27 -164 54 -356 28 -191 51 -351 53 -354 1 -4 241
-217 275 -244 1 -1 17 -76 36 -166 l34 -164 159 -335 c88 -184 169 -353 181
-376 l21 -40 507 63 507 63 231 -138 c337 -203 548 -323 751 -428 216 -111
289 -138 363 -132 64 6 92 24 549 362 304 225 314 233 343 291 30 59 31 68 99
707 l68 646 -60 442 -59 441 77 277 c43 152 82 292 87 310 6 21 14 32 22 29
10 -4 381 -275 872 -638 l51 -38 874 776 c481 426 881 781 889 788 12 11 69
11 295 4 l280 -9 309 89 308 89 187 -119 c103 -65 192 -119 197 -119 5 0 186
56 401 124 l391 125 158 -19 159 -18 680 348 c374 192 681 349 683 349 2 1 48
-38 103 -86z m11581 -452 l45 -40 22 -188 c12 -103 24 -197 26 -209 4 -19 15
-21 186 -31 99 -6 182 -13 183 -15 1 -1 40 -84 86 -183 46 -99 84 -181 86
-183 1 -2 82 31 179 72 l177 76 142 0 142 0 205 -60 c199 -58 551 -137 710
-161 l78 -11 17 -56 c19 -66 27 -49 -99 -220 -49 -68 -86 -127 -81 -131 19
-16 665 -233 679 -227 8 3 15 0 15 -7 -1 -7 -38 -111 -84 -231 l-83 -220 175
-435 c96 -240 178 -445 182 -456 l8 -21 263 23 c145 12 279 22 297 23 l32 0 0
-83 c0 -46 -3 -124 -6 -173 l-7 -90 -336 -38 c-185 -22 -344 -42 -354 -45 -14
-6 24 -63 223 -333 l240 -326 0 -148 0 -147 -137 -210 -137 -210 -193 -531
-193 -531 30 -89 30 -89 -98 -111 c-53 -61 -103 -118 -110 -128 -10 -12 -18
-140 -32 -485 -14 -349 -22 -479 -34 -513 -8 -25 -33 -104 -56 -176 l-40 -132
-170 -73 c-94 -40 -170 -76 -170 -81 0 -4 86 -123 191 -263 l192 -255 -8 -232
-7 -233 -91 -130 c-49 -71 -94 -134 -98 -139 -4 -5 -163 -23 -353 -42 -190
-18 -352 -36 -359 -40 -6 -5 -99 -73 -205 -153 -136 -102 -192 -149 -189 -160
3 -9 86 -155 185 -326 l180 -309 -127 -87 c-69 -48 -129 -84 -133 -81 -7 7
-199 409 -238 499 l-19 42 -198 -66 c-109 -36 -203 -71 -209 -77 -10 -9 -174
-902 -174 -943 0 -7 123 -89 274 -183 l275 -171 -96 -149 c-52 -82 -96 -151
-97 -154 0 -2 32 -41 73 -86 l73 -81 -12 -67 c-21 -113 -15 -108 -125 -120
-54 -6 -99 -13 -101 -15 -6 -6 96 -960 104 -975 4 -7 57 -42 117 -76 l110 -64
7 -588 c4 -343 10 -599 16 -614 5 -14 103 -131 216 -261 l207 -236 372 -99
372 -99 155 -116 c152 -114 159 -121 365 -362 172 -203 216 -249 250 -261 36
-14 42 -22 64 -78 54 -144 199 -373 262 -415 21 -13 79 -40 130 -59 138 -52
126 -36 117 -156 -4 -57 -26 -401 -48 -765 l-40 -662 64 -116 65 -115 -102
-72 c-56 -39 -115 -80 -130 -91 -15 -10 -55 -59 -88 -108 -33 -49 -61 -89 -63
-89 -1 0 -69 29 -151 65 -81 36 -150 65 -154 65 -3 0 -28 -34 -55 -75 -27 -41
-49 -75 -51 -75 -1 0 -42 59 -90 130 -49 72 -93 130 -98 130 -5 0 -26 -13 -46
-29 -21 -17 -43 -31 -50 -33 -8 -2 -42 68 -94 192 l-82 195 -340 27 c-187 15
-356 28 -374 30 l-35 3 0 124 -1 124 -145 41 -145 41 -75 113 -75 112 -160
113 c-88 62 -238 162 -333 222 l-172 110 -101 178 c-56 97 -104 177 -108 177
-4 0 -79 -61 -166 -136 -144 -123 -161 -135 -189 -130 -17 3 -68 10 -113 17
-58 8 -81 15 -75 23 4 6 25 37 46 69 21 31 37 59 35 61 -2 1 -69 20 -149 42
l-144 39 -26 130 -26 129 -152 40 c-92 24 -152 44 -152 51 0 7 25 97 56 200
30 103 54 188 52 190 -2 1 -124 9 -273 17 l-269 15 -296 -209 c-240 -171 -316
-231 -410 -323 -112 -111 -122 -118 -406 -288 -234 -140 -324 -200 -453 -304
l-162 -130 -307 -71 c-169 -40 -352 -82 -407 -95 l-100 -23 -3 -337 -2 -338
121 -152 c67 -83 126 -156 130 -162 4 -5 -8 -66 -26 -135 -19 -69 -34 -145
-35 -170 0 -25 18 -255 41 -513 l40 -467 -192 -718 c-105 -394 -225 -856 -265
-1027 -62 -263 -161 -615 -176 -631 -3 -2 -18 1 -34 6 -27 9 -62 -3 -326 -110
-164 -66 -301 -120 -306 -120 -5 0 -48 73 -97 163 -48 89 -96 174 -107 189
-10 15 -88 65 -183 119 -135 76 -165 97 -169 118 -3 14 -17 111 -31 216 -15
104 -27 190 -28 191 -1 0 -222 58 -491 129 -429 112 -491 127 -510 115 -11 -7
-63 -47 -115 -89 -51 -42 -97 -75 -102 -74 -4 2 -196 123 -426 269 l-418 267
-147 46 c-81 26 -150 50 -154 54 -4 3 -1 122 6 264 l12 258 -56 459 c-31 252
-56 464 -56 471 0 25 -785 1057 -1063 1398 l-292 358 -75 -5 c-41 -3 -161 -10
-266 -17 l-190 -13 -745 561 -744 560 -385 -103 c-212 -57 -393 -104 -402
-104 -9 0 -113 56 -230 125 l-214 124 -635 -274 c-348 -151 -638 -275 -644
-274 -5 0 -134 69 -284 153 l-275 152 -54 319 -55 319 -224 296 c-124 162
-229 297 -234 298 -5 2 -34 -6 -64 -19 -30 -12 -57 -20 -60 -17 -3 3 -4 61 -3
130 l3 124 288 -214 c159 -117 290 -212 291 -210 1 2 -26 271 -60 598 -34 327
-61 596 -59 598 1 1 63 -39 138 -89 l135 -92 125 33 125 33 185 -142 c102 -77
190 -141 196 -141 46 0 1215 497 1241 527 4 5 -3 130 -14 280 l-21 271 362
548 c200 302 369 551 376 555 21 11 795 249 810 249 9 0 102 -23 207 -51 108
-29 195 -48 200 -43 4 5 43 78 86 162 l77 153 41 -5 c23 -3 208 -10 411 -17
l370 -11 180 61 c99 34 186 61 195 61 8 0 60 -34 115 -75 55 -41 103 -74 108
-75 4 0 -22 39 -58 87 -36 47 -65 89 -65 92 0 4 93 37 208 75 169 56 367 139
1085 454 482 212 874 389 870 392 -5 4 -241 47 -525 96 -483 83 -518 90 -517
109 0 11 28 187 62 390 l62 370 260 31 c143 17 269 33 281 35 18 3 -29 64
-292 383 -233 283 -311 383 -303 392 6 7 95 81 199 165 109 88 186 157 183
163 -4 6 -96 148 -205 315 l-198 303 100 192 c54 105 171 328 259 496 87 168
158 306 157 307 0 1 -259 27 -575 59 l-574 57 -124 -62 -125 -62 -96 82 c-53
45 -148 125 -210 178 l-113 96 -57 -3 -57 -4 -409 884 c-224 486 -411 886
-415 891 -4 4 -99 16 -212 28 -128 13 -246 31 -317 49 -63 15 -115 30 -116 32
-2 1 -10 201 -20 443 -9 242 -18 440 -19 441 -1 1 -184 -15 -406 -37 -222 -21
-409 -35 -416 -31 -6 4 -44 34 -84 67 l-72 59 56 28 c106 54 157 61 390 54
175 -6 216 -5 245 8 41 17 85 58 106 97 25 50 36 155 25 254 -20 171 -37 235
-120 429 -45 104 -81 194 -81 200 0 6 389 218 864 470 l864 460 311 81 c171
45 316 86 323 92 7 5 145 112 306 237 l293 227 337 30 c185 16 436 38 557 49
l220 19 1005 -127 1005 -128 3 -64 c3 -65 3 -65 70 -138 l67 -73 104 -14 c57
-8 105 -16 106 -17 1 -2 37 -63 79 -136 149 -257 153 -263 237 -299 l74 -33
370 70 c203 38 373 66 376 62 7 -7 371 -456 373 -459 1 -1 152 31 336 71 l334
72 56 74 55 73 0 132 c0 116 2 133 19 151 39 38 99 143 206 354 172 342 340
716 347 769 5 42 -5 185 -23 349 -6 45 -4 52 11 52 10 0 149 -44 310 -97 l292
-97 399 87 c248 54 478 98 609 116 283 39 273 39 327 -8z m4565 -2736 c195
-23 313 -40 322 -49 9 -7 126 -108 260 -225 134 -116 247 -211 251 -211 4 0
65 53 135 118 70 64 132 119 137 121 8 2 291 -123 308 -136 2 -2 -49 -57 -114
-122 l-119 -119 39 -24 c22 -13 134 -80 250 -148 l212 -124 12 -88 c14 -101
-4 -81 230 -260 l125 -96 90 -161 90 -161 115 -37 115 -38 63 -112 64 -112
-147 -232 c-80 -127 -145 -232 -143 -234 3 -2 321 -144 384 -171 l31 -13 -43
-298 c-23 -163 -41 -300 -39 -303 2 -4 44 -24 92 -45 48 -21 91 -41 95 -44 3
-3 12 -78 19 -166 10 -127 17 -170 36 -212 12 -30 23 -59 23 -66 0 -8 -74 -28
-202 -56 -112 -24 -205 -45 -206 -47 -2 -1 153 -204 345 -451 192 -246 352
-453 356 -460 4 -6 20 -167 37 -358 l29 -345 -120 -561 c-82 -386 -116 -565
-110 -577 5 -9 59 -98 120 -196 l111 -180 0 -205 0 -206 315 -158 315 -157
143 0 143 0 220 -256 c120 -140 226 -264 234 -274 14 -17 26 -14 240 80 124
55 228 96 231 92 4 -4 24 -60 45 -124 21 -65 41 -118 44 -118 4 0 287 178 630
395 448 284 629 393 644 390 20 -5 509 -90 552 -97 14 -2 66 29 152 90 73 51
137 95 144 97 10 4 30 -57 72 -220 l59 -225 56 0 c69 0 601 -18 738 -25 l102
-5 157 231 c86 127 169 239 183 249 14 11 135 91 269 178 l242 159 233 258
c127 142 233 263 235 269 1 6 -49 107 -113 223 -63 116 -115 218 -115 226 0
30 73 209 80 195 4 -7 13 -53 20 -102 l12 -89 178 -271 177 -272 58 -319 59
-320 122 -125 123 -125 25 -380 c13 -209 22 -383 18 -387 -4 -4 -20 -8 -36
-10 -29 -3 -30 -1 -169 300 -77 166 -144 299 -147 295 -4 -5 -87 -261 -186
-571 l-178 -563 68 -237 67 -237 -105 -274 c-58 -150 -106 -279 -106 -286 0
-6 131 -106 291 -221 242 -174 289 -212 285 -229 -2 -11 -26 -144 -51 -295
l-47 -275 28 -93 27 -93 -41 -42 -41 -42 -41 -290 c-22 -159 -43 -302 -46
-316 -4 -23 5 -33 76 -88 44 -34 80 -67 80 -72 0 -5 -14 -37 -30 -69 -35 -70
-42 -50 70 -225 42 -67 82 -131 89 -143 9 -17 0 -126 -44 -539 -67 -622 -52
-577 -211 -630 -54 -18 -103 -33 -110 -33 -6 0 -52 98 -101 218 l-90 217 -318
0 -318 0 -56 -147 c-31 -82 -58 -148 -61 -148 -3 0 -84 95 -180 210 -159 192
-190 224 -190 203 0 -5 -11 -21 -23 -37 l-23 -29 -112 166 c-62 91 -125 185
-142 209 l-30 43 22 237 22 237 -135 178 c-74 98 -138 183 -141 188 -4 6 9
129 27 274 l35 263 -89 127 c-87 126 -88 127 -160 343 l-72 216 -72 6 c-40 3
-223 13 -407 21 -184 8 -360 17 -391 20 l-57 4 -37 -149 c-21 -83 -38 -150
-40 -150 -1 0 -46 18 -100 40 l-98 40 -266 -1 c-146 0 -376 -6 -510 -12 -215
-11 -245 -10 -253 3 -5 8 -123 235 -262 505 l-253 489 -102 86 -103 85 -180
405 c-99 223 -183 408 -187 413 -4 4 -275 4 -602 0 l-594 -8 1 -25 c1 -14 4
-99 8 -190 l7 -165 -215 -59 c-119 -33 -216 -61 -216 -63 0 -2 19 -31 41 -65
26 -38 37 -63 30 -67 -5 -3 -143 -46 -305 -96 l-295 -90 -47 -98 -47 -98 25
-58 26 -59 -41 -40 -40 -41 15 -153 c8 -84 14 -155 12 -157 -1 -1 -37 5 -78
15 -42 10 -77 16 -80 13 -2 -2 -40 -161 -84 -353 l-81 -349 55 -109 54 -109
-2 -191 -3 -191 -70 -26 -70 -27 3 -57 4 -57 -77 35 -77 35 -253 0 c-138 0
-381 -3 -539 -7 l-288 -6 177 -177 177 -177 -61 -37 c-34 -21 -61 -40 -61 -44
1 -4 27 -45 60 -92 l59 -85 -96 -96 c-67 -68 -93 -101 -87 -110 8 -14 368
-464 388 -486 6 -7 133 -31 281 -53 l270 -41 258 -111 c141 -61 257 -114 257
-117 0 -4 -80 1 -177 10 -98 9 -180 14 -182 13 -2 -2 17 -90 42 -196 25 -106
43 -196 41 -200 -3 -5 -21 -8 -40 -8 -26 0 -109 43 -354 184 l-320 184 -159
-26 c-124 -20 -161 -30 -164 -42 -4 -15 -14 -15 -83 -8 l-79 9 -142 142 -142
141 -103 -31 c-57 -18 -111 -35 -121 -39 -22 -8 -22 -4 12 144 15 67 24 122
19 122 -5 0 -97 -34 -205 -75 l-195 -75 -149 105 c-82 58 -155 108 -163 111
-9 3 -42 -16 -83 -49 -62 -50 -75 -56 -143 -67 l-75 -12 -150 56 c-98 36 -156
63 -167 78 -32 41 -105 167 -129 223 -23 53 -39 70 -39 41 0 -19 -60 -76 -81
-76 -14 0 -5 22 42 108 32 59 59 112 59 119 0 15 -72 48 -138 63 -62 14 -43
-4 -275 268 -181 212 -183 213 -369 353 l-187 140 -360 97 -360 97 -150 173
-151 173 -1 87 c-1 48 -5 332 -8 632 l-6 544 -110 64 c-60 34 -116 66 -123 70
-18 11 -74 544 -58 554 6 4 29 8 51 8 22 0 46 4 54 9 10 6 119 477 121 523 0
3 -22 31 -49 60 l-49 54 114 177 c63 98 114 181 114 185 0 4 -141 94 -312 201
-172 107 -314 195 -316 196 -3 3 98 578 103 584 2 2 17 -25 33 -60 50 -109
255 -544 257 -547 5 -6 775 511 771 517 -2 3 -88 152 -191 330 -103 178 -183
326 -178 330 4 4 35 28 68 53 l60 45 340 32 c187 17 356 34 376 37 35 5 45 17
197 234 l160 229 10 328 11 328 -115 153 -114 152 56 25 c31 14 60 25 65 25 4
0 24 51 43 113 19 61 56 180 82 262 l47 150 17 438 18 439 24 26 c14 15 73 82
132 150 l108 122 -41 120 -40 120 160 440 c87 242 165 455 172 473 8 17 82
136 165 264 l152 232 0 231 0 230 -124 168 -123 167 46 8 c25 4 129 18 231 30
l185 22 8 280 c4 154 12 287 16 295 13 24 323 220 349 220 13 0 161 -16 329
-35z m-33064 -1046 l188 -60 225 16 224 17 75 -67 c41 -37 75 -69 75 -71 0 -2
-16 -45 -35 -96 -19 -51 -68 -206 -109 -345 l-74 -251 65 -248 66 -248 -274
-268 -274 -267 56 -58 c31 -32 114 -119 184 -193 l127 -135 -5 -237 -5 -238
289 0 c265 0 288 -1 293 -17 23 -75 84 -358 77 -363 -4 -3 -186 -137 -405
-299 -265 -196 -394 -297 -387 -304 5 -5 97 -65 203 -131 106 -67 192 -126
192 -132 -1 -5 -7 -83 -15 -174 l-12 -166 116 -147 c65 -80 117 -154 117 -164
0 -10 -5 -25 -10 -33 -8 -12 -15 -8 -42 25 -18 22 -42 50 -53 63 l-20 23 -172
-231 -173 -230 0 -107 0 -108 -74 -135 -75 -135 -113 -48 -113 -47 -29 -111
c-21 -80 -38 -124 -61 -153 -30 -39 -36 -42 -153 -73 -88 -22 -143 -43 -193
-73 l-70 -41 -73 12 c-41 6 -79 15 -86 19 -10 6 -5 41 20 153 18 81 36 151 40
157 4 7 22 5 54 -6 27 -9 51 -13 56 -8 5 5 40 93 78 195 l70 187 232 362 c127
199 230 363 228 365 -8 8 -606 -156 -658 -181 l-55 -25 -145 45 c-80 25 -181
58 -224 74 l-79 29 -96 -59 c-53 -33 -97 -61 -98 -62 -1 -1 -7 -44 -13 -96 -6
-52 -13 -105 -15 -116 -3 -12 -46 -52 -102 -95 -77 -58 -119 -81 -198 -110
-191 -69 -406 -162 -414 -178 -5 -9 -14 -47 -21 -86 -7 -38 -15 -73 -17 -77
-2 -4 -94 37 -203 92 -110 55 -200 99 -200 98 0 -2 13 -106 29 -233 16 -126
28 -231 27 -232 -1 -1 -57 -5 -124 -9 -67 -4 -122 -8 -122 -9 0 0 9 -50 20
-110 11 -60 20 -114 20 -121 0 -8 -43 -13 -150 -16 -82 -2 -151 -6 -153 -9 -3
-2 4 -67 14 -144 27 -207 32 -187 -60 -236 -88 -46 -84 -40 -102 -171 -6 -47
-15 -91 -18 -96 -3 -5 -63 -44 -132 -86 -145 -87 -128 -52 -150 -299 l-13
-138 -136 -128 -136 -129 -28 -149 -27 -148 -121 -235 c-112 -218 -135 -254
-311 -495 -104 -143 -194 -265 -199 -272 -6 -7 -19 -133 -30 -281 l-21 -270
137 -222 137 -223 -21 -199 -22 -199 -254 -397 c-140 -218 -272 -417 -293
-442 l-39 -44 -96 23 c-53 12 -105 25 -116 28 -20 5 -20 1 -20 -187 l0 -191
-86 -109 -85 -109 -51 -163 -51 -163 29 -237 c21 -180 31 -238 42 -238 7 0 68
16 135 35 67 19 125 35 129 35 3 0 9 -9 13 -20 5 -15 -13 -43 -74 -115 -45
-53 -81 -102 -81 -108 0 -7 22 -70 49 -142 27 -71 46 -133 43 -136 -4 -3 -63
-30 -132 -58 -69 -29 -127 -56 -130 -60 -3 -4 -81 -56 -175 -115 l-169 -107
-169 15 c-94 9 -171 15 -173 13 -2 -2 -25 -93 -50 -203 -26 -109 -52 -204 -58
-211 -6 -6 -139 -87 -296 -178 -157 -91 -288 -170 -293 -174 -4 -4 22 -42 59
-85 46 -55 63 -81 54 -86 -7 -4 -316 -171 -687 -371 l-675 -364 -410 -430
c-226 -236 -430 -450 -454 -475 l-42 -45 23 -135 c13 -74 22 -136 20 -138 -2
-2 -245 -48 -541 -103 -297 -54 -544 -101 -549 -103 -6 -2 -80 -158 -164 -347
l-153 -344 -1356 -965 -1357 -964 -1143 -248 -1142 -249 -845 -464 c-465 -256
-848 -465 -852 -465 -7 1 -514 914 -529 952 -5 15 -1 17 22 13 16 -2 135 -7
264 -10 l235 -6 -265 266 c-179 179 -258 265 -245 265 11 -1 151 -13 312 -28
l292 -28 260 260 261 261 2 335 3 335 2439 3745 c1342 2060 2441 3747 2442
3748 2 2 221 -4 488 -14 267 -9 488 -16 490 -13 3 2 66 411 141 909 75 498
137 910 139 915 2 6 353 34 877 69 481 33 876 60 877 62 2 1 -127 249 -286
551 -159 301 -301 571 -315 599 l-26 51 202 123 c131 79 205 119 213 114 7 -5
139 -147 295 -316 156 -169 285 -306 287 -304 7 8 1370 2701 1368 2704 -2 1
-325 -35 -719 -80 -394 -45 -720 -79 -723 -75 -7 6 821 2305 834 2319 4 4 98
14 208 23 l200 15 175 -79 174 -78 1167 141 c642 78 1169 144 1172 147 3 3
-19 87 -49 186 -30 100 -55 186 -55 191 0 22 31 20 59 -4 l29 -24 243 174
c196 142 250 176 283 180 23 3 218 19 434 36 l392 30 98 44 c92 42 108 45 302
70 164 21 240 36 379 76 96 27 175 49 176 47 1 -1 41 -117 89 -258 l88 -256
114 -78 c97 -67 112 -80 101 -93 -6 -9 -58 -67 -114 -131 -57 -63 -103 -117
-103 -120 0 -3 130 -59 289 -123 l289 -118 284 66 c155 36 286 68 289 72 4 4
60 193 125 421 l118 413 -35 217 -35 216 43 175 c23 96 49 203 57 238 l14 63
-103 120 -103 120 34 132 c18 73 34 134 34 137 0 3 -31 44 -70 90 -38 46 -70
88 -70 92 0 9 93 138 99 138 3 0 90 -27 194 -61z m19395 -3404 l193 -164 222
110 c220 111 222 111 276 105 30 -4 57 -8 59 -10 2 -3 -58 -122 -133 -265
l-136 -261 150 -231 c83 -127 151 -234 151 -238 0 -5 -99 -89 -220 -186 -121
-98 -220 -181 -220 -184 0 -3 75 -96 166 -206 108 -131 163 -206 160 -217 -2
-10 -55 -138 -116 -286 l-113 -268 -296 -142 c-189 -90 -296 -147 -295 -155 1
-11 446 -660 497 -725 7 -9 22 -5 65 18 30 16 56 29 58 27 1 -1 -2 -11 -6 -23
-12 -31 -251 -128 -565 -229 -148 -48 -273 -88 -277 -89 -6 -1 -887 1175 -944
1260 -13 19 3 62 191 504 113 266 205 489 205 495 0 6 -36 89 -79 185 -91 198
-91 158 2 324 l50 88 14 267 c8 146 17 269 21 272 4 4 48 23 97 44 262 109
542 261 599 324 11 12 22 21 25 21 3 0 93 -75 199 -165z m23122 -1132 c0 -5 7
-50 15 -102 9 -52 14 -95 12 -97 -1 -2 -26 44 -55 101 l-52 105 40 0 c22 0 40
-3 40 -7z m-5150 -3895 l155 -351 107 -90 108 -90 254 -491 c139 -270 270
-524 290 -563 l36 -73 73 5 c187 14 728 35 883 35 l174 0 235 -94 235 -94 7
26 c4 15 25 101 48 192 l41 165 165 -3 c90 -2 200 -7 243 -10 l79 -7 47 -140
c40 -121 57 -155 115 -239 l68 -99 -32 -258 c-19 -143 -31 -268 -28 -278 2
-10 66 -100 142 -199 l137 -181 -22 -232 -22 -232 73 -106 c151 -220 318 -474
325 -493 4 -15 -73 -138 -323 -514 -186 -280 -334 -494 -343 -494 -8 0 -288
57 -623 126 -334 70 -610 125 -613 122 -3 -3 160 -307 363 -675 l368 -670 705
-214 705 -214 166 -153 166 -153 18 -79 c10 -43 16 -84 13 -92 -4 -9 -568
-848 -583 -866 -3 -3 -574 33 -681 43 l-61 6 -172 210 c-108 131 -177 207
-184 202 -7 -4 -140 -115 -297 -248 -157 -133 -296 -248 -310 -257 -14 -8
-115 -34 -225 -58 -110 -24 -203 -46 -207 -49 -4 -4 -31 -149 -59 -323 l-52
-317 -121 -29 c-66 -16 -757 -181 -1534 -368 l-1413 -339 1198 -5 1198 -5
-220 -137 -219 -138 104 0 c58 0 359 7 670 15 311 8 600 15 643 15 l77 0 0
-115 c0 -73 4 -115 10 -115 6 0 72 7 146 16 75 8 138 14 140 12 2 -2 -48 -42
-111 -88 -63 -46 -114 -84 -112 -85 1 -1 404 -15 896 -31 l895 -28 183 -155
c101 -85 183 -162 183 -170 0 -24 -58 -443 -62 -446 -2 -1 -247 17 -546 41
l-544 43 -671 -234 c-369 -129 -676 -235 -681 -235 -5 0 -90 51 -190 113
l-182 113 -675 -18 -674 -18 -587 70 -587 71 -253 -55 c-140 -31 -261 -56
-269 -56 -9 0 -182 49 -386 109 l-369 109 -271 212 -270 213 -594 333 c-326
183 -594 332 -595 331 -1 -1 42 -244 95 -540 63 -349 94 -540 87 -542 -6 -2
-112 -9 -236 -15 -124 -7 -226 -13 -228 -14 -1 -2 -16 -68 -34 -147 -17 -79
-34 -147 -37 -151 -3 -4 -229 -16 -501 -28 -272 -12 -496 -22 -497 -24 -2 -1
18 -58 43 -125 25 -68 43 -125 41 -127 -2 -3 -107 36 -233 86 -126 49 -238 90
-249 90 -11 0 -336 -70 -722 -156 -387 -86 -709 -154 -717 -151 -7 3 -128 164
-268 359 -252 349 -299 405 -471 559 l-38 34 -22 209 c-19 192 -23 209 -42
216 -12 4 -119 34 -238 66 l-218 59 -285 373 -285 372 -67 -52 c-37 -29 -276
-217 -531 -418 -268 -211 -471 -364 -480 -362 -9 2 -432 106 -941 232 -753
186 -992 249 -1285 340 -198 62 -361 113 -362 114 -2 1 22 81 51 177 30 96 85
302 121 459 37 157 158 627 270 1045 l203 760 -44 499 -43 498 49 186 c28 103
46 190 41 196 -4 6 -69 88 -144 182 l-137 171 0 167 c0 91 2 166 4 166 13 0
652 153 661 158 5 3 88 68 183 145 145 116 223 168 475 319 301 180 302 181
427 303 99 98 173 157 359 289 190 134 241 166 268 166 21 0 33 -5 33 -13 0
-7 -20 -81 -45 -165 -25 -83 -45 -155 -45 -160 0 -6 94 -33 210 -62 155 -39
211 -56 214 -69 3 -9 15 -67 27 -128 l22 -113 39 -10 c41 -11 41 -12 5 -63
l-19 -28 89 -92 c49 -51 221 -230 382 -400 162 -169 295 -306 297 -304 2 2
-23 126 -112 551 l-6 29 49 -7 49 -6 78 66 c61 53 80 64 87 53 5 -8 21 -34 35
-59 22 -39 49 -60 215 -165 105 -66 256 -166 337 -223 l146 -102 86 -133 86
-133 90 -24 89 -25 3 -153 c2 -136 4 -152 20 -152 54 0 818 -63 824 -69 4 -3
59 -132 122 -285 64 -153 118 -281 120 -283 3 -3 41 22 85 56 l79 61 35 -48
c18 -26 78 -112 132 -191 l98 -143 101 156 c55 86 105 156 109 156 5 0 76 -29
157 -64 l149 -64 111 169 112 168 214 148 c117 81 212 153 211 158 -1 6 -49
95 -106 198 l-103 188 37 607 c20 334 40 649 42 699 3 51 11 97 17 101 6 5 52
15 101 22 50 7 97 19 106 26 14 12 33 2 152 -82 118 -82 139 -94 157 -84 26
14 26 12 -4 -120 -13 -58 -23 -106 -22 -108 2 -1 126 36 276 84 l273 86 116
-116 116 -115 289 -31 c159 -16 293 -30 298 -30 4 0 8 18 8 41 0 30 4 40 14
36 7 -3 143 -80 301 -171 194 -112 298 -166 318 -166 30 0 470 51 475 55 1 1
-14 72 -35 158 -20 86 -35 158 -32 161 2 2 106 -6 231 -17 125 -11 230 -18
233 -15 3 3 -57 133 -133 289 l-139 284 -316 137 -317 137 -237 36 c-131 21
-241 40 -245 43 -16 16 -168 207 -168 212 0 3 40 45 89 94 l89 88 -44 63 -44
63 82 52 c46 29 85 55 87 57 3 2 -21 29 -52 61 -31 32 -57 61 -57 65 0 4 69 7
154 7 l153 0 273 -130 c150 -72 275 -128 278 -125 3 2 -1 88 -8 190 -7 101
-13 188 -13 192 1 5 31 19 67 32 l66 23 0 324 0 324 -49 99 -50 98 36 154 c19
85 36 155 37 156 1 1 62 -13 136 -32 74 -19 136 -33 137 -31 2 1 -9 114 -22
249 -19 182 -25 291 -23 415 3 180 2 175 56 158 21 -7 22 -6 11 13 -8 11 -11
22 -9 24 9 8 205 65 211 61 3 -2 19 -48 35 -104 26 -89 31 -100 52 -100 21 0
708 88 724 93 5 1 -55 96 -132 212 -77 115 -136 213 -132 216 4 4 63 23 132
41 l125 35 -3 79 c-1 43 -5 114 -8 157 l-6 77 353 0 354 -1 155 -351z m-1366
-188 c31 -47 31 -50 7 -50 -12 0 -20 9 -24 28 -3 15 -9 35 -12 45 -12 29 1 19
29 -23z m-53479 -10400 l80 -80 -83 0 -82 0 0 80 c0 44 1 80 3 80 1 0 38 -36
82 -80z"/>
</g>
</svg>
